<?xml version="1.0" encoding="utf-8"?>
<!-- Generator: Adobe Illustrator 26.3.1, SVG Export Plug-In . SVG Version: 6.00 Build 0)  -->
<svg version="1.1" xmlns="http://www.w3.org/2000/svg" xmlns:xlink="http://www.w3.org/1999/xlink" x="0px" y="0px"
	 viewBox="0 0 1920 872.1" style="enable-background:new 0 0 1920 872.1;" xml:space="preserve">
<style type="text/css">
	.st0{fill:#FFC43D;}
	.st1{fill:#ABB2C2;}
	.st2{fill:#00319C;}
	.st3{fill:#FFFFFF;}
	.st4{fill:none;stroke:#00319C;stroke-width:5;stroke-miterlimit:10;}
	.st5{clip-path:url(#SVGID_00000163043992584199628770000016549284434043358618_);}
	.st6{clip-path:url(#SVGID_00000003797400899084375750000000665447192891367598_);}
	.st7{clip-path:url(#SVGID_00000052072247456583572290000009182152574913728129_);}
	.st8{clip-path:url(#SVGID_00000176018171044366516840000012091459545604602556_);}
	.st9{clip-path:url(#SVGID_00000068649070704049478630000011958742394485003663_);}
	.st10{clip-path:url(#SVGID_00000089567909552967424230000011756734460791297166_);}
	.st11{clip-path:url(#SVGID_00000149382067537714656270000011978859690164243616_);}
	.st12{clip-path:url(#SVGID_00000046299450354531250090000003593016810762266266_);}
</style>
<g id="BACKGROUND">
</g>
<g id="OBJECTS">
	<g>
		<polygon class="st0" points="1613,442.4 1486.7,442.3 1486.4,695.5 1739.5,695.5 1739.5,569 1613,569 		"/>
		<polygon class="st0" points="1359.8,189.3 1359.8,305.2 1359.8,315.8 1486.4,315.8 1486.4,189.3 		"/>
		<rect x="1613" y="189.3" class="st0" width="126.6" height="126.6"/>
		<g>
			
				<rect x="980.5" y="189.2" transform="matrix(6.123234e-17 -1 1 6.123234e-17 791.3478 1296.2928)" class="st1" width="126.6" height="126.6"/>
			<path class="st1" d="M1109.9,318.5H977.8V186.4h132.1V318.5z M983.3,313h121V192h-121V313z"/>
		</g>
		<g>
			
				<rect x="1739.5" y="569" transform="matrix(6.123234e-17 -1 1 6.123234e-17 1170.5669 2435.0833)" class="st1" width="126.6" height="126.6"/>
			<path class="st1" d="M1868.9,698.3h-132.1V566.2h132.1V698.3z M1742.3,692.8h121v-121h-121V692.8z"/>
		</g>
		<g>
			<rect x="1106.7" y="442.4" class="st2" width="253.1" height="126.6"/>
			<path class="st2" d="M1362.1,571.3h-257.8V440.1h257.8V571.3z M1109,566.7h248.5V444.7H1109V566.7z"/>
		</g>
		<g>
			
				<rect x="1360.2" y="315.8" transform="matrix(6.123234e-17 -1 1 6.123234e-17 1044.4113 1802.4956)" class="st2" width="126.6" height="126.6"/>
			<path class="st2" d="M1489.1,444.6h-131.2V313.4h131.2V444.6z M1362.5,440h121.9V318.1h-121.9V440z"/>
		</g>
		<g>
			
				<rect x="1107.1" y="62.6" transform="matrix(6.123234e-17 -1 1 6.123234e-17 1044.4871 1296.2927)" class="st2" width="126.6" height="126.6"/>
			<path class="st2" d="M1236.5,192h-132.3V59.8h132.3V192z M1110,186.3h120.9V65.5H1110V186.3z"/>
		</g>
		<g>
			<path class="st2" d="M1236,318.1h-131.2V186.9H1236V318.1z M1109.4,313.4h121.9V191.5h-121.9V313.4z"/>
		</g>
		<g>
			<polygon class="st2" points="1489.1,569 1484.4,569 1484.4,443.6 1357.9,358.3 1357.9,188.9 1362.6,188.9 1362.6,355.8 
				1489.1,441.1 			"/>
		</g>
	</g>
	<g>
		<g>
			<path class="st2" d="M1868.4,571.3h-131.2V440.1h131.2V571.3z M1741.9,566.7h121.9V444.7h-121.9V566.7z"/>
		</g>
		<g>
			<g>
				<path class="st2" d="M1845.9,517.7h-30.5v-4.6h26.5c0.3-2.2,0.4-4.3,0.4-6.5c0-25.7-16.9-45.2-39.4-45.2c0,0,0,0,0,0
					c-10.9,0-20.9,4.7-28.2,13.1c-7.2,8.4-11.2,19.8-11.2,32.1c0,2.1,0.1,4.3,0.4,6.5h26.5v4.6h-30.5l-0.3-2c-0.5-3-0.7-6.1-0.7-9.1
					c0-13.4,4.4-25.8,12.4-35.1c8.2-9.5,19.4-14.7,31.7-14.7c0,0,0,0,0,0c12.3,0,23.5,5.2,31.7,14.7c8,9.2,12.4,21.7,12.4,35.1
					c0,3-0.2,6.1-0.7,9.1L1845.9,517.7z"/>
			</g>
			<g>
				<polyline class="st3" points="1790.2,514.5 1790.2,523.5 1754.7,534.2 1754.7,569 1851,569 1851,534.2 1815.4,523.5 
					1815.4,514.5 				"/>
				<polygon class="st2" points="1853.3,571.3 1752.4,571.3 1752.4,532.5 1787.9,521.8 1787.9,514.5 1792.6,514.5 1792.6,525.2 
					1757,535.9 1757,566.7 1848.7,566.7 1848.7,535.9 1813.1,525.2 1813.1,514.5 1817.7,514.5 1817.7,521.8 1853.3,532.5 				"/>
			</g>
			<g>
				<g>
					<rect x="1767.5" y="546" class="st2" width="4.6" height="23"/>
				</g>
				<g>
					<rect x="1833.5" y="546" class="st2" width="4.6" height="23"/>
				</g>
			</g>
			<g>
				<path class="st2" d="M1809,516.8h-12.4c-11.5,0-20.8-9.3-20.8-20.8v-12.1h4.6V496c0,8.9,7.2,16.1,16.1,16.1h12.4
					c8.9,0,16.1-7.2,16.1-16.1v-12.1h4.6V496C1829.8,507.5,1820.5,516.8,1809,516.8z"/>
			</g>
			<g>
				<g>
					<path class="st2" d="M1780.5,503.5h-2.3c-5.9,0-10.6-4.8-10.6-10.6v-0.6c0-5.9,4.8-10.6,10.6-10.6h2.3V503.5z M1775.9,486.7
						c-2.2,0.9-3.7,3.1-3.7,5.6v0.6c0,2.5,1.5,4.7,3.7,5.6V486.7z"/>
				</g>
				<g>
					<path class="st2" d="M1827.5,504.6h-2.3v-21.9h2.3c5.9,0,10.6,4.8,10.6,10.6v0.6C1838.1,499.8,1833.3,504.6,1827.5,504.6z
						 M1829.8,487.7v11.7c2.2-0.9,3.7-3.1,3.7-5.6v-0.6C1833.5,490.8,1832,488.7,1829.8,487.7z"/>
				</g>
			</g>
			<g>
				<path class="st2" d="M1802.8,543.6c-12.5,0-23.4-6.6-26.4-16.1l4.4-1.4c2.4,7.5,11.6,12.9,22,12.9c10.3,0,19.6-5.4,22-12.9
					l4.4,1.4C1826.2,537,1815.3,543.6,1802.8,543.6z"/>
			</g>
			<g>
				<path class="st2" d="M1813,486.2h-34.8v-4.6h34.8c6.7,0,12.2-5.5,12.2-12.2h4.6C1829.8,478.7,1822.3,486.2,1813,486.2z"/>
			</g>
		</g>
	</g>
	<g>
		<g>
			<path class="st2" d="M1741.9,697.9h-131.2V566.7h131.2L1741.9,697.9z M1615.3,693.2h121.9l0-121.9h-121.9V693.2z"/>
		</g>
		<g>
			<g>
				<circle class="st4" cx="1676.3" cy="632.3" r="45.3"/>
				<circle class="st4" cx="1676.3" cy="632.5" r="33.1"/>
				<circle class="st4" cx="1676.3" cy="632.7" r="20.8"/>
				<circle class="st4" cx="1676.3" cy="632.9" r="8.5"/>
			</g>
		</g>
	</g>
	<g>
		<g>
			<path class="st2" d="M1741.9,571.3h-131.2V440.1h131.2V571.3z M1615.3,566.7h121.9V444.7h-121.9V566.7z"/>
		</g>
		<g>
			<g>
				<g>
					<g>
						<g>
							<g>
								<g>
									<g>
										<polygon class="st2" points="1676.3,515.8 1637.2,485.6 1640,481.9 1676.3,509.9 1712.5,481.9 1715.3,485.6 										"/>
									</g>
								</g>
							</g>
						</g>
					</g>
				</g>
				<g>
					<g>
						<g>
							<g>
								<path class="st2" d="M1716.2,530h-80v-48.6h80V530z M1640.9,525.3h70.7V486h-70.7V525.3z"/>
							</g>
						</g>
					</g>
				</g>
			</g>
		</g>
	</g>
	<g>
		<g>
			<path class="st2" d="M1868.4,318.1h-131.2l0-131.2h131.2V318.1z M1741.9,313.5h121.9V191.6h-121.9L1741.9,313.5z"/>
		</g>
		<g>
			<defs>
				<rect id="SVGID_1_" x="1739.5" y="189.3" width="126.6" height="126.6"/>
			</defs>
			<clipPath id="SVGID_00000092428661063031714120000018189863506814180254_">
				<use xlink:href="#SVGID_1_"  style="overflow:visible;"/>
			</clipPath>
			<g style="clip-path:url(#SVGID_00000092428661063031714120000018189863506814180254_);">
				<g>
					<path class="st2" d="M1853,363.6h-100.9v-75l50.5-15.2l50.5,15.2V363.6z M1756.7,359h91.7V292l-45.8-13.8l-45.8,13.8V359z"/>
				</g>
				<g>
					<g>
						<path class="st2" d="M1769.6,363.6h-15.2l-2.3-2.3v-71l3.9-1.7c10.1,9.5,15.9,22.8,15.9,36.7v36L1769.6,363.6z M1756.7,359
							h10.5v-33.7c0-10.7-3.8-21-10.5-29.1V359z"/>
					</g>
					<g>
						<path class="st2" d="M1850.7,363.6h-15.2l-2.3-2.3v-36c0-13.8,5.8-27.2,15.9-36.7l3.9,1.7v71L1850.7,363.6z M1837.8,359h10.5
							v-62.8c-6.7,8.1-10.5,18.5-10.5,29.1V359z"/>
					</g>
				</g>
				<g>
					<path class="st3" d="M1815.1,270.6v9l0,0c-7.3,6.2-17.9,6.2-25.2,0l0,0v-9"/>
					<path class="st2" d="M1802.6,286.6c-5,0-10-1.7-14.1-5.2l-0.8-0.7v-10.1h4.6v7.9c6.1,4.6,14.4,4.6,20.5,0v-7.9h4.6v10.1
						l-0.8,0.7C1812.6,284.8,1807.6,286.6,1802.6,286.6z"/>
				</g>
				<g>
					<path class="st2" d="M1808.7,272.9h-12.4c-11.5,0-20.8-9.3-20.8-20.8V240h4.6v12.1c0,8.9,7.2,16.1,16.1,16.1h12.4
						c8.9,0,16.1-7.2,16.1-16.1V240h4.6v12.1C1829.5,263.6,1820.2,272.9,1808.7,272.9z"/>
				</g>
				<g>
					<g>
						<path class="st2" d="M1780.2,259.6h-2.3c-5.9,0-10.6-4.8-10.6-10.6v-0.6c0-5.9,4.8-10.6,10.6-10.6h2.3V259.6z M1775.6,242.8
							c-2.2,0.9-3.7,3.1-3.7,5.6v0.6c0,2.5,1.5,4.7,3.7,5.6V242.8z"/>
					</g>
					<g>
						<path class="st2" d="M1827.2,259.6h-2.3v-21.9h2.3c5.9,0,10.6,4.8,10.6,10.6v0.6C1837.8,254.8,1833.1,259.6,1827.2,259.6z
							 M1829.5,242.8v11.7c2.2-0.9,3.7-3.1,3.7-5.6v-0.6C1833.2,245.8,1831.7,243.7,1829.5,242.8z"/>
					</g>
				</g>
				<g>
					<path class="st2" d="M1834.4,239.6h-63.7l-1-4.4l0.4-0.2c20.8-10,44.6-9.9,65.3,0.2L1834.4,239.6z M1783,235h39.1
						C1809.3,231.3,1795.8,231.3,1783,235z"/>
				</g>
				<g>
					<path class="st2" d="M1813.3,229.9h-4.6v-22.1c0-3.4-2.7-6.1-6.1-6.1s-6.1,2.7-6.1,6.1v22.1h-4.6v-22.1
						c0-5.9,4.8-10.7,10.7-10.7c5.9,0,10.7,4.8,10.7,10.7V229.9z"/>
				</g>
				<g>
					<polygon class="st2" points="1817.4,351.3 1787.7,351.3 1787.7,280.5 1792.3,280.5 1792.3,346.6 1812.8,346.6 1812.8,280.5 
						1817.4,280.5 					"/>
				</g>
				<g>
					<g>
						<path class="st2" d="M1776,234.6h-4.6c0-14.1,8.9-26.4,22-30.5l3.1-1l-0.1,3.4l-2.2,0l0.6,2C1783.6,212,1776,222.5,1776,234.6
							z"/>
					</g>
					<g>
						<path class="st2" d="M1833.7,234.6h-4.6c0-12.1-7.6-22.6-18.8-26.1l0.6-2h-2.2l0-0.2l0-3.2l3,0.9
							C1824.8,208.2,1833.7,220.4,1833.7,234.6z"/>
					</g>
				</g>
			</g>
		</g>
	</g>
	<g>
		<g>
			<path class="st2" d="M1615.3,318.1h-131.2V187h131.2V318.1z M1488.7,313.5h121.9V191.6h-121.9V313.5z"/>
		</g>
		<g>
			<g>
				<g>
					<path class="st2" d="M1540.2,302l0.1-10.7c-4.1-0.9-8-2.5-11.7-4.7l-7.7,7.6l-13-12.9l7.7-7.6c-2.2-3.6-3.8-7.5-4.8-11.6
						l-10.8,0.1l0.1-18.4l10.8-0.1c1-4.1,2.6-8.1,4.9-11.7l-7.6-7.5l13.1-13l7.6,7.5c3.6-2.3,7.6-3.9,11.7-4.9l0.1-10.7l18.4-0.1
						l-0.1,10.7c4.1,0.9,8,2.5,11.7,4.7l7.7-7.6l13,12.9l-7.7,7.6c2.2,3.6,3.8,7.5,4.8,11.6l10.8-0.1l-0.1,18.4l-10.8,0.1
						c-1,4.1-2.6,8.1-4.9,11.7l7.6,7.5l-13.1,13l-7.6-7.5c-3.6,2.3-7.6,3.9-11.7,4.9l-0.1,10.7L1540.2,302z M1528,280.5l1.6,1.1
						c4,2.7,8.6,4.6,13.4,5.4l1.9,0.3l0,9.9l9.2-0.1l0-9.9l1.9-0.4c4.9-0.9,9.4-2.8,13.5-5.6l1.6-1.1l7,7l6.5-6.5l-7-7l1.1-1.6
						c2.8-4.1,4.7-8.6,5.6-13.4l0.4-1.9l10-0.1l0-9.1l-9.9,0.1l-0.3-1.9c-0.9-4.8-2.7-9.3-5.5-13.3l-1.1-1.6l7.1-7l-6.4-6.4l-7.1,7
						l-1.6-1.1c-4-2.7-8.6-4.6-13.4-5.4l-1.9-0.3l0-9.9l-9.2,0.1l0,9.9l-1.9,0.4c-4.9,0.9-9.4,2.8-13.5,5.6l-1.6,1.1l-7-7l-6.5,6.5
						l7,7l-1.1,1.6c-2.8,4.1-4.7,8.6-5.6,13.4l-0.4,1.9l-10,0.1l0,9.1l9.9-0.1l0.3,1.9c0.9,4.8,2.7,9.3,5.5,13.3l1.1,1.6l-7.1,7
						l6.4,6.4L1528,280.5z M1549.5,273.5c-5.4,0-10.8-2-14.9-6.1c-4-4-6.2-9.2-6.2-14.9c0-5.7,2.2-11.1,6.3-15.1
						c8.3-8.3,21.9-8.4,30.1-0.2c4,4,6.2,9.2,6.2,14.9c0,5.7-2.2,11.1-6.3,15.1l0,0C1560.5,271.4,1555,273.5,1549.5,273.5z
						 M1549.9,235.7c-4.3,0-8.6,1.6-11.9,4.9c-3.2,3.2-5,7.4-5,11.9c0,4.4,1.7,8.5,4.8,11.6c6.5,6.4,17.1,6.3,23.6-0.2
						c3.2-3.2,5-7.4,4.9-11.9c0-4.4-1.7-8.5-4.8-11.6C1558.4,237.3,1554.2,235.7,1549.9,235.7z"/>
				</g>
			</g>
		</g>
	</g>
	<g>
		<g>
			<path class="st2" d="M1741.9,444.7h-131.2V313.5h131.2V444.7z M1615.3,440.1h121.9V318.1h-121.9V440.1z"/>
		</g>
		<g>
			<g>
				<rect x="1639.5" y="346.7" class="st2" width="36.7" height="4.6"/>
			</g>
			<g>
				<rect x="1639.5" y="391.8" class="st2" width="73.5" height="4.6"/>
			</g>
			<g>
				<rect x="1639.5" y="361.8" class="st2" width="73.5" height="4.6"/>
			</g>
			<g>
				<rect x="1639.5" y="406.9" class="st2" width="73.5" height="4.6"/>
			</g>
			<g>
				<rect x="1639.5" y="376.8" class="st2" width="73.5" height="4.6"/>
			</g>
		</g>
	</g>
	<g>
		<g>
			<path class="st2" d="M1741.9,191.5h-131.2V60.3h131.2V191.5z M1615.3,186.9h121.9V64.9h-121.9V186.9z"/>
		</g>
		<g>
			<g>
				<rect x="1639.5" y="93.5" class="st2" width="36.7" height="4.6"/>
			</g>
			<g>
				<rect x="1639.5" y="138.6" class="st2" width="73.5" height="4.6"/>
			</g>
			<g>
				<rect x="1639.5" y="108.5" class="st2" width="73.5" height="4.6"/>
			</g>
			<g>
				<rect x="1639.5" y="153.7" class="st2" width="73.5" height="4.6"/>
			</g>
			<g>
				<rect x="1639.5" y="123.6" class="st2" width="73.5" height="4.6"/>
			</g>
		</g>
	</g>
	<g>
		<g>
			<rect x="1486.4" y="695.5" class="st3" width="126.6" height="126.6"/>
			<path class="st2" d="M1615.3,824.4h-131.2V693.2h131.2V824.4z M1488.7,819.8h121.9V697.9h-121.9V819.8z"/>
		</g>
		<g>
			<g>
				<rect x="1512.9" y="726.4" class="st2" width="36.7" height="4.6"/>
			</g>
			<g>
				<rect x="1512.9" y="771.6" class="st2" width="73.5" height="4.6"/>
			</g>
			<g>
				<rect x="1512.9" y="741.5" class="st2" width="73.5" height="4.6"/>
			</g>
			<g>
				<rect x="1512.9" y="786.6" class="st2" width="73.5" height="4.6"/>
			</g>
			<g>
				<rect x="1512.9" y="756.5" class="st2" width="73.5" height="4.6"/>
			</g>
		</g>
	</g>
	<g>
		<g>
			<path class="st2" d="M1362.6,191.5h-131.2V60.3h131.2V191.5z M1236,186.9h121.9V64.9H1236V186.9z"/>
		</g>
		<g>
			<path class="st2" d="M1362.6,191.5h-131.2V60.3h131.2V191.5z M1236,186.9h121.9V64.9H1236V186.9z"/>
		</g>
		<g>
			<g>
				
					<ellipse transform="matrix(0.225 -0.9744 0.9744 0.225 882.6028 1361.4742)" class="st4" cx="1297.2" cy="125.9" rx="45.3" ry="45.3"/>
				
					<ellipse transform="matrix(0.1855 -0.9826 0.9826 0.1855 932.5985 1377.3898)" class="st4" cx="1297.2" cy="126.1" rx="33.1" ry="33.1"/>
				
					<ellipse transform="matrix(0.1202 -0.9927 0.9927 0.1202 1015.776 1398.9301)" class="st4" cx="1297.2" cy="126.4" rx="20.8" ry="20.8"/>
				<circle class="st4" cx="1297.2" cy="126.6" r="8.5"/>
			</g>
		</g>
	</g>
	<g>
		<g>
			<path class="st2" d="M1488.7,697.9h-131.2V566.7h131.2V697.9z M1362.1,693.2h121.9V571.3h-121.9V693.2z"/>
		</g>
		<g>
			<defs>
				<rect id="SVGID_00000087409323079116170400000004279641582536171924_" x="1359.8" y="569" width="126.6" height="126.6"/>
			</defs>
			<clipPath id="SVGID_00000139986853893758618060000017017431734701348266_">
				<use xlink:href="#SVGID_00000087409323079116170400000004279641582536171924_"  style="overflow:visible;"/>
			</clipPath>
			<g style="clip-path:url(#SVGID_00000139986853893758618060000017017431734701348266_);">
				<g>
					<g>
						<polyline class="st3" points="1423.1,660.2 1408.6,668.5 1404.6,651.2 						"/>
						<polygon class="st2" points="1407,672 1402.3,651.8 1406.8,650.7 1410.1,664.9 1422,658.1 1424.3,662.2 						"/>
					</g>
					<g>
						<polyline class="st3" points="1423.1,660.2 1437.9,668.6 1441.7,651.2 						"/>
						<polygon class="st2" points="1439.5,672.2 1422,662.2 1424.3,658.1 1436.3,665.1 1439.4,650.7 1443.9,651.7 						"/>
					</g>
				</g>
				<g>
					<path class="st2" d="M1473.6,733.4h-100.9v-75l50.5-15.2l50.5,15.2V733.4z M1377.3,728.8h91.7v-66.9l-45.8-13.8l-45.8,13.8
						V728.8z"/>
				</g>
				<g>
					<g>
						<path class="st2" d="M1390.1,733.4H1375l-2.3-2.3v-71l3.9-1.7c10.1,9.5,15.9,22.8,15.9,36.7v36L1390.1,733.4z M1377.3,728.8
							h10.5v-33.7c0-10.7-3.8-21-10.5-29.1V728.8z"/>
					</g>
					<g>
						<path class="st2" d="M1471.3,733.4h-15.2l-2.3-2.3v-36c0-13.8,5.8-27.2,15.9-36.7l3.9,1.7v71L1471.3,733.4z M1458.4,728.8
							h10.5V666c-6.7,8.1-10.5,18.5-10.5,29.1V728.8z"/>
					</g>
				</g>
				<g>
					<polyline class="st3" points="1435.7,640.4 1435.7,649.4 1423.1,660.2 1410.5,649.4 1410.5,640.4 					"/>
					<polygon class="st2" points="1423.1,663.2 1408.2,650.5 1408.2,640.4 1412.8,640.4 1412.8,648.4 1423.1,657.1 1433.4,648.4 
						1433.4,640.4 1438,640.4 1438,650.5 					"/>
				</g>
				<g>
					<path class="st2" d="M1429.7,641.8h-12.4c-11.5,0-20.9-9.4-20.9-20.9v-12.8c0-14.9,12.2-27.1,27.1-27.1
						c14.9,0,27.1,12.2,27.1,27.1v12.8C1450.5,632.5,1441.2,641.8,1429.7,641.8z M1423.4,585.7c-12.4,0-22.5,10.1-22.5,22.5v12.8
						c0,9,7.3,16.2,16.2,16.2h12.4c9,0,16.2-7.3,16.2-16.2v-12.8C1445.9,595.8,1435.8,585.7,1423.4,585.7z"/>
				</g>
				<g>
					<g>
						<path class="st2" d="M1401,628.4h-2.3c-5.9,0-10.7-4.8-10.7-10.7v-0.6c0-5.9,4.8-10.7,10.7-10.7h2.3V628.4z M1396.3,611.5
							c-2.2,0.9-3.8,3.1-3.8,5.6v0.6c0,2.5,1.6,4.7,3.8,5.6V611.5z"/>
					</g>
					<g>
						<path class="st2" d="M1448.2,629.5h-2.3v-22h2.3c5.9,0,10.7,4.8,10.7,10.7v0.6C1458.9,624.7,1454.1,629.5,1448.2,629.5z
							 M1450.5,612.6v11.8c2.2-0.9,3.8-3.1,3.8-5.6v-0.6C1454.3,615.7,1452.7,613.5,1450.5,612.6z"/>
					</g>
				</g>
				<g>
					<defs>
						<path id="SVGID_00000062888652598726564680000001126143847578866560_" d="M1429.7,641.8h-12.4c-11.5,0-20.9-9.4-20.9-20.9
							v-12.8c0-14.9,12.2-27.1,27.1-27.1c14.9,0,27.1,12.2,27.1,27.1v12.8C1450.5,632.5,1441.2,641.8,1429.7,641.8z M1423.4,585.7
							c-12.4,0-22.5,10.1-22.5,22.5v12.8c0,9,7.3,16.2,16.2,16.2h12.4c9,0,16.2-7.3,16.2-16.2v-12.8
							C1445.9,595.8,1435.8,585.7,1423.4,585.7z"/>
					</defs>
					<use xlink:href="#SVGID_00000062888652598726564680000001126143847578866560_"  style="overflow:visible;fill:#00319C;"/>
					<clipPath id="SVGID_00000029033937258702659080000005001500131116687291_">
						<use xlink:href="#SVGID_00000062888652598726564680000001126143847578866560_"  style="overflow:visible;"/>
					</clipPath>
					<g style="clip-path:url(#SVGID_00000029033937258702659080000005001500131116687291_);">
						<g>
							<g>
								
									<rect x="1425" y="576.9" transform="matrix(0.4277 -0.9039 0.9039 0.4277 274.4983 1633.5171)" class="st2" width="4.6" height="46.1"/>
							</g>
							<g>
								<path class="st2" d="M1397.1,611.2v-4.6c6.6,0,12.5-4.2,14.5-10.6l0.2-0.8l4.4,1.4l-0.2,0.8
									C1413.3,605.7,1405.7,611.2,1397.1,611.2z"/>
							</g>
						</g>
					</g>
				</g>
			</g>
		</g>
	</g>
	<g>
		<g>
			<defs>
				<rect id="SVGID_00000042706531603485701670000015330573713510129830_" x="1486.4" y="62.7" width="125.9" height="126.6"/>
			</defs>
			<clipPath id="SVGID_00000083046597761713977990000009920731850824691100_">
				<use xlink:href="#SVGID_00000042706531603485701670000015330573713510129830_"  style="overflow:visible;"/>
			</clipPath>
			<g style="clip-path:url(#SVGID_00000083046597761713977990000009920731850824691100_);">
				<g>
					<path class="st2" d="M1563,137.9l-1.3-4.4c6.6-2,22.4-6.7,27.5-8.3c-0.7-24.9-17.4-43.5-39.4-43.5c0,0,0,0,0,0
						c-10.9,0-20.9,4.7-28.2,13.1c-6.9,8-10.9,18.7-11.2,30.4c5.1,1.5,20.8,6.3,27.5,8.3l-1.3,4.4l-14.6-4.4c-3.6-1.1-7.3-2.2-10-3
						l-3.3-1c-1.7-0.5-2.9-0.9-2.9-2.6c0-13.4,4.4-25.8,12.4-35.1c8.2-9.5,19.4-14.7,31.7-14.7c0,0,0,0,0,0
						c12.3,0,23.5,5.2,31.7,14.7c8,9.2,12.4,21.7,12.4,35.1c0,1.7-1.2,2.1-2.9,2.6l-3.3,1c-2.7,0.8-6.4,1.9-10,3L1563,137.9z"/>
				</g>
				<g>
					<polyline class="st3" points="1537.2,134.8 1537.2,143.8 1501.6,154.5 1501.6,225.5 1597.9,225.5 1597.9,154.5 1562.3,143.8 
						1562.3,134.8 					"/>
					<polygon class="st2" points="1600.2,227.8 1499.3,227.8 1499.3,152.8 1534.9,142.1 1534.9,134.8 1539.5,134.8 1539.5,145.5 
						1503.9,156.2 1503.9,223.2 1595.6,223.2 1595.6,156.2 1560,145.5 1560,134.8 1564.6,134.8 1564.6,142.1 1600.2,152.8 					"/>
				</g>
				<g>
					<g>
						<rect x="1514.5" y="166.2" class="st2" width="4.6" height="59.2"/>
					</g>
					<g>
						<rect x="1580.4" y="166.2" class="st2" width="4.6" height="59.2"/>
					</g>
				</g>
				<g>
					<path class="st2" d="M1555.9,137.1h-12.4c-11.5,0-20.8-9.3-20.8-20.8v-12.1h4.6v12.1c0,8.9,7.2,16.1,16.1,16.1h12.4
						c8.9,0,16.1-7.2,16.1-16.1v-12.1h4.6v12.1C1576.7,127.8,1567.4,137.1,1555.9,137.1z"/>
				</g>
				<g>
					<g>
						<path class="st2" d="M1527.4,123.8h-2.3c-5.9,0-10.6-4.8-10.6-10.6v-0.6c0-5.9,4.8-10.6,10.6-10.6h2.3V123.8z M1522.8,107
							c-2.2,0.9-3.7,3.1-3.7,5.6v0.6c0,2.5,1.5,4.7,3.7,5.6V107z"/>
					</g>
					<g>
						<path class="st2" d="M1574.4,123.8h-2.3v-21.9h2.3c5.9,0,10.6,4.8,10.6,10.6v0.6C1585,119,1580.3,123.8,1574.4,123.8z
							 M1576.7,107v11.7c2.2-0.9,3.7-3.1,3.7-5.6v-0.6C1580.4,110,1578.9,107.9,1576.7,107z"/>
					</g>
				</g>
				<g>
					<polygon class="st2" points="1549.8,159.8 1534.4,145.3 1537.6,142 1549.8,153.5 1561.9,142 1565.1,145.3 					"/>
				</g>
				<g>
					<g>
						<rect x="1501" y="172.6" class="st2" width="15.2" height="4.6"/>
					</g>
					<g>
						<rect x="1583.3" y="172.6" class="st2" width="15.2" height="4.6"/>
					</g>
				</g>
				<g>
					<g>
						<polygon class="st2" points="1530.6,166.7 1528.9,145.7 1533.5,145.4 1534.7,160.4 1549,155.5 1550.5,159.9 						"/>
					</g>
					<g>
						<polygon class="st2" points="1568.9,166.7 1549,159.9 1550.5,155.5 1564.8,160.4 1566,145.4 1570.6,145.7 						"/>
					</g>
				</g>
				<g>
					<rect x="1525.8" y="101.9" class="st2" width="47.9" height="4.6"/>
				</g>
				<g>
					<path class="st2" d="M1562.2,79.4h-4.6c0-4.3-3.5-7.9-7.9-7.9c-4.3,0-7.9,3.5-7.9,7.9h-4.6c0-6.9,5.6-12.5,12.5-12.5
						C1556.6,66.9,1562.2,72.5,1562.2,79.4z"/>
				</g>
			</g>
		</g>
		<g>
			<path class="st2" d="M1614.6,191.6h-130.5V60.4l130.5,0V191.6z M1488.7,187H1610V65l-121.3,0V187z"/>
		</g>
	</g>
	<g>
		<g>
			<path class="st2" d="M1362.1,697.9h-131.2V566.7h131.2V697.9z M1235.6,693.2h121.9V571.3h-121.9V693.2z"/>
		</g>
		<g>
			<g>
				<path class="st2" d="M1340.6,658.9h-4.6v-35c0-24.4-16.2-41.5-39.4-41.5c0,0,0,0,0,0c-11.2,0-21.2,4-28.3,11.3
					c-7.3,7.5-11.1,18-11.1,30.1v35h-4.6v-35c0-13.4,4.3-24.9,12.4-33.3c8-8.2,19.2-12.8,31.6-12.8c0,0,0,0,0,0
					c25.9,0,44,19,44,46.1V658.9z"/>
			</g>
			<g>
				<polyline class="st3" points="1284,641 1284,650.1 1248.4,660.8 1248.4,695.5 1344.7,695.5 1344.7,660.8 1309.1,650.1 
					1309.1,641 				"/>
				<polygon class="st2" points="1347,697.9 1246.1,697.9 1246.1,659.1 1281.7,648.3 1281.7,641 1286.3,641 1286.3,651.8 
					1250.7,662.5 1250.7,693.2 1342.4,693.2 1342.4,662.5 1306.8,651.8 1306.8,641 1311.4,641 1311.4,648.3 1347,659.1 				"/>
			</g>
			<g>
				<g>
					<rect x="1261.2" y="672.5" class="st2" width="4.6" height="23"/>
				</g>
				<g>
					<rect x="1327.2" y="672.5" class="st2" width="4.6" height="23"/>
				</g>
			</g>
			<g>
				<path class="st2" d="M1302.7,643.4h-12.4c-11.5,0-20.8-9.3-20.8-20.8v-12.1h4.6v12.1c0,8.9,7.2,16.1,16.1,16.1h12.4
					c8.9,0,16.1-7.2,16.1-16.1v-12.1h4.6v12.1C1323.5,634,1314.2,643.4,1302.7,643.4z"/>
			</g>
			<g>
				<g>
					<path class="st2" d="M1274.2,630.1h-2.3c-5.9,0-10.6-4.8-10.6-10.6v-0.6c0-5.9,4.8-10.6,10.6-10.6h2.3V630.1z M1269.6,613.2
						c-2.2,0.9-3.7,3.1-3.7,5.6v0.6c0,2.5,1.5,4.7,3.7,5.6V613.2z"/>
				</g>
				<g>
					<path class="st2" d="M1321.2,630.1h-2.3v-21.9h2.3c5.9,0,10.6,4.8,10.6,10.6v0.6C1331.8,625.3,1327.1,630.1,1321.2,630.1z
						 M1323.5,613.2V625c2.2-0.9,3.7-3.1,3.7-5.6v-0.6C1327.2,616.3,1325.7,614.1,1323.5,613.2z"/>
				</g>
			</g>
			<g>
				<path class="st2" d="M1282.1,612.8h-10.2v-4.6h10.2c6.7,0,12.2-5.5,12.2-12.2h4.6C1298.9,605.2,1291.3,612.8,1282.1,612.8z"/>
			</g>
			<g>
				<path class="st2" d="M1321.2,612.8H1311c-9.3,0-16.8-7.5-16.8-16.8h4.6c0,6.7,5.5,12.2,12.2,12.2h10.2V612.8z"/>
			</g>
			<g>
				<polygon class="st2" points="1294.5,695.5 1289.9,695.5 1289.9,647.6 1308.9,647.6 1308.9,652.2 1294.5,652.2 				"/>
			</g>
			<g>
				<path class="st2" d="M1303.8,667.5c0,1.4-1.1,2.5-2.5,2.5c-1.4,0-2.5-1.1-2.5-2.5c0-1.4,1.1-2.5,2.5-2.5
					C1302.7,665,1303.8,666.1,1303.8,667.5z"/>
				<path class="st2" d="M1303.8,679.3c0,1.4-1.1,2.5-2.5,2.5c-1.4,0-2.5-1.1-2.5-2.5s1.1-2.5,2.5-2.5
					C1302.7,676.9,1303.8,678,1303.8,679.3z"/>
			</g>
		</g>
	</g>
	<g>
		<g>
			<defs>
				<rect id="SVGID_00000064341770907145648750000007178787129924242083_" x="1359.8" y="62.7" width="126.6" height="126.6"/>
			</defs>
			<clipPath id="SVGID_00000096771967483377117890000012517972331764185221_">
				<use xlink:href="#SVGID_00000064341770907145648750000007178787129924242083_"  style="overflow:visible;"/>
			</clipPath>
			<g style="clip-path:url(#SVGID_00000096771967483377117890000012517972331764185221_);">
				<g>
					<polyline class="st3" points="1410.6,134.8 1410.6,143.8 1375,154.5 1375,225.5 1471.3,225.5 1471.3,154.5 1435.8,143.8 
						1435.8,134.8 					"/>
					<polygon class="st2" points="1473.6,227.8 1372.7,227.8 1372.7,152.8 1408.3,142.1 1408.3,134.8 1412.9,134.8 1412.9,145.5 
						1377.3,156.2 1377.3,223.2 1469,223.2 1469,156.2 1433.4,145.5 1433.4,134.8 1438.1,134.8 1438.1,142.1 1473.6,152.8 					"/>
				</g>
				<g>
					<g>
						<rect x="1387.9" y="166.2" class="st2" width="4.6" height="59.2"/>
					</g>
					<g>
						<rect x="1453.9" y="166.2" class="st2" width="4.6" height="59.2"/>
					</g>
				</g>
				<g>
					<polygon class="st2" points="1423.2,159.8 1407.8,145.3 1411,142 1423.2,153.5 1435.4,142 1438.5,145.3 					"/>
				</g>
				<g>
					<g>
						<rect x="1374.5" y="172.6" class="st2" width="15.2" height="4.6"/>
					</g>
					<g>
						<rect x="1456.7" y="172.6" class="st2" width="15.2" height="4.6"/>
					</g>
				</g>
				<g>
					<g>
						<polygon class="st2" points="1404,166.7 1402.3,145.7 1406.9,145.4 1408.1,160.4 1422.4,155.5 1423.9,159.9 						"/>
					</g>
					<g>
						<polygon class="st2" points="1442.3,166.7 1422.4,159.9 1423.9,155.5 1438.2,160.4 1439.4,145.4 1444.1,145.7 						"/>
					</g>
				</g>
				<g>
					<path class="st2" d="M1429.4,137.1H1417c-11.5,0-20.8-9.3-20.8-20.8v-12.1h4.6v12.1c0,8.9,7.2,16.1,16.1,16.1h12.4
						c8.9,0,16.1-7.2,16.1-16.1v-12.1h4.6v12.1C1450.1,127.8,1440.8,137.1,1429.4,137.1z"/>
				</g>
				<g>
					<g>
						<path class="st2" d="M1400.8,123.8h-2.3c-5.9,0-10.6-4.8-10.6-10.6v-0.6c0-5.9,4.8-10.6,10.6-10.6h2.3V123.8z M1396.2,107
							c-2.2,0.9-3.7,3.1-3.7,5.6v0.6c0,2.5,1.5,4.7,3.7,5.6V107z"/>
					</g>
					<g>
						<path class="st2" d="M1447.8,123.8h-2.3v-21.9h2.3c5.9,0,10.6,4.8,10.6,10.6v0.6C1458.5,119,1453.7,123.8,1447.8,123.8z
							 M1450.1,107v11.7c2.2-0.9,3.7-3.1,3.7-5.6v-0.6C1453.9,110,1452.3,107.9,1450.1,107z"/>
					</g>
				</g>
				<g>
					<path class="st2" d="M1455,103.8h-63.7l-1-4.4l0.4-0.2c20.8-10,44.6-9.9,65.3,0.2L1455,103.8z M1403.6,99.2h39.1
						C1429.9,95.5,1416.4,95.5,1403.6,99.2z"/>
				</g>
				<g>
					<g>
						<polygon class="st2" points="1453.9,100 1450.1,97.5 1456,88.3 1423.2,73.4 1390.4,88.3 1396.3,97.5 1392.4,100 1383.6,86.3 
							1423.2,68.4 1462.8,86.3 						"/>
					</g>
				</g>
				<g>
					
						<rect x="1376.4" y="156.2" transform="matrix(0.9612 -0.2758 0.2758 0.9612 10.2261 389.7409)" class="st2" width="28.7" height="4.6"/>
				</g>
				<g>
					
						<rect x="1454.4" y="144.1" transform="matrix(0.2758 -0.9612 0.9612 0.2758 902.6561 1515.0607)" class="st2" width="4.6" height="28.7"/>
				</g>
				<g>
					<rect x="1420.9" y="157.7" class="st2" width="4.6" height="65.4"/>
				</g>
			</g>
		</g>
		<g>
			<path class="st2" d="M1488.7,191.6h-131.2V60.4l131.2,0V191.6z M1362.1,187h121.9V65l-121.9,0V187z"/>
		</g>
	</g>
	<g>
		<g>
			<path class="st2" d="M1615.3,444.7h-131.2V313.5h131.2V444.7z M1488.7,440.1h121.9V318.1h-121.9V440.1z"/>
		</g>
		<g>
			<defs>
				<rect id="SVGID_00000168111022170487233390000002805445092168835511_" x="1486.4" y="315.8" width="126.6" height="126.6"/>
			</defs>
			<clipPath id="SVGID_00000059297152671234040250000013674023719136762253_">
				<use xlink:href="#SVGID_00000168111022170487233390000002805445092168835511_"  style="overflow:visible;"/>
			</clipPath>
			<g style="clip-path:url(#SVGID_00000059297152671234040250000013674023719136762253_);">
				<g>
					<path class="st2" d="M1599.9,490.2H1499v-75l50.5-15.2l50.5,15.2V490.2z M1503.6,485.5h91.7v-66.9l-45.8-13.8l-45.8,13.8V485.5
						z"/>
				</g>
				<g>
					<g>
						<polygon class="st2" points="1516.5,490.2 1501.3,490.2 1501.3,485.5 1514.2,485.5 1514.2,426.9 1518.8,426.9 1518.8,487.8 
													"/>
					</g>
					<g>
						<polygon class="st2" points="1597.6,490.2 1582.4,490.2 1580.1,487.8 1580.1,426.9 1584.7,426.9 1584.7,485.5 1597.6,485.5 
													"/>
					</g>
				</g>
				<g>
					<path class="st3" d="M1562,397.1v9l0,0c-7.3,6.2-17.9,6.2-25.2,0l0,0v-9"/>
					<path class="st2" d="M1549.5,413.1c-5,0-10-1.7-14.1-5.2l-0.8-0.7v-10.1h4.6v7.9c6.1,4.6,14.4,4.6,20.5,0v-7.9h4.6v10.1
						l-0.8,0.7C1559.5,411.4,1554.5,413.1,1549.5,413.1z"/>
				</g>
				<g>
					<path class="st2" d="M1555.6,399.5h-12.4c-11.5,0-20.8-9.3-20.8-20.8v-12.1h4.6v12.1c0,8.9,7.2,16.1,16.1,16.1h12.4
						c8.9,0,16.1-7.2,16.1-16.1v-12.1h4.6v12.1C1576.4,390.1,1567.1,399.5,1555.6,399.5z"/>
				</g>
				<g>
					<g>
						<path class="st2" d="M1527.1,386.2h-2.3c-5.9,0-10.6-4.8-10.6-10.6v-0.6c0-5.9,4.8-10.6,10.6-10.6h2.3V386.2z M1522.5,369.3
							c-2.2,0.9-3.7,3.1-3.7,5.6v0.6c0,2.5,1.5,4.7,3.7,5.6V369.3z"/>
					</g>
					<g>
						<path class="st2" d="M1574.1,386.2h-2.3v-21.9h2.3c5.9,0,10.6,4.8,10.6,10.6v0.6C1584.7,381.4,1580,386.2,1574.1,386.2z
							 M1576.4,369.3v11.7c2.2-0.9,3.7-3.1,3.7-5.6v-0.6C1580.1,372.4,1578.6,370.2,1576.4,369.3z"/>
					</g>
				</g>
				<g>
					<path class="st2" d="M1581.3,366.2h-63.7l-1-4.4l0.4-0.2c20.8-10,44.6-9.9,65.3,0.2L1581.3,366.2z M1529.9,361.6h39.1
						C1556.2,357.8,1542.7,357.8,1529.9,361.6z"/>
				</g>
				<g>
					<path class="st2" d="M1560.2,356.5h-4.6v-22.1c0-3.4-2.7-6.1-6.1-6.1s-6.1,2.7-6.1,6.1v22.1h-4.6v-22.1
						c0-5.9,4.8-10.7,10.7-10.7c5.9,0,10.7,4.8,10.7,10.7V356.5z"/>
				</g>
				<g>
					<g>
						<path class="st2" d="M1522.9,361.1h-4.6c0-14.1,8.9-26.4,22-30.5l3-0.9l0,3.4l-2.2,0l0.6,2
							C1530.5,338.5,1522.9,349,1522.9,361.1z"/>
					</g>
					<g>
						<path class="st2" d="M1580.6,361.1h-4.6c0-12.1-7.6-22.6-18.8-26.1l0.6-2h-2.2l0-0.2l0-3.2l3,0.9
							C1571.7,334.7,1580.6,347,1580.6,361.1z"/>
					</g>
				</g>
				<g>
					<polygon class="st2" points="1571.6,429.2 1527.3,429.2 1527.3,406.5 1531.9,406.5 1531.9,424.5 1567,424.5 1567,406.5 
						1571.6,406.5 					"/>
				</g>
				<g>
					<g>
						<path class="st2" d="M1522.2,401.1c-3.3,0-6.3-1.2-8.4-3.4c-2.5-2.6-3.6-6.2-3.1-10.2c0.5-3.8,2.4-7.5,5.4-10.4l3.2,3.3
							c-2.2,2.2-3.7,4.9-4,7.7c-0.3,2.5,0.3,4.8,1.8,6.3c1.5,1.5,3.8,2.2,6.3,1.9c2.8-0.3,5.5-1.7,7.8-3.9l3.2,3.3
							c-3,2.9-6.7,4.8-10.5,5.2C1523.3,401.1,1522.8,401.1,1522.2,401.1z"/>
					</g>
					<g>
						<path class="st2" d="M1576.7,401.1c-0.5,0-1.1,0-1.7-0.1c-3.8-0.4-7.5-2.3-10.5-5.2l3.2-3.3c2.2,2.2,5,3.6,7.8,3.9
							c2.6,0.3,4.8-0.4,6.3-1.9c1.5-1.5,2.2-3.8,1.8-6.3c-0.4-2.8-1.8-5.5-4-7.7l3.2-3.3c3,2.9,4.9,6.6,5.4,10.4
							c0.5,4-0.6,7.6-3.1,10.2C1583,399.9,1580,401.1,1576.7,401.1z"/>
					</g>
				</g>
			</g>
		</g>
	</g>
	<g>
		<g>
			<path class="st2" d="M1695.2,290.8h-36.7v-20.3h36.7V290.8z M1663.1,286.1h27.4v-11.1h-27.4V286.1z"/>
		</g>
		<g>
			<path class="st2" d="M1692.2,275.1h-30.7l-12.8-28.2c-4.4-9.6-3.6-20.7,2.1-29.6c5.7-8.9,15.5-14.2,26-14.2s20.3,5.3,26,14.2
				c5.7,8.9,6.5,20,2.1,29.6L1692.2,275.1z M1664.5,270.4h24.7l11.6-25.5c3.7-8.2,3-17.6-1.8-25.2c-4.9-7.6-13.1-12.1-22.1-12.1
				s-17.3,4.5-22.1,12.1c-4.9,7.6-5.5,17-1.8,25.2L1664.5,270.4z"/>
		</g>
		<g>
			<polygon class="st2" points="1676.8,265.6 1664.9,253.6 1668.2,250.3 1676.8,259 1685.5,250.3 1688.8,253.6 			"/>
		</g>
		<g>
			<rect x="1674.5" y="262.3" class="st2" width="4.6" height="11.6"/>
		</g>
		<g>
			<path class="st2" d="M1690.7,303.3H1663v-17.1h27.7V303.3z M1667.6,298.6h18.5v-7.9h-18.5V298.6z"/>
		</g>
		<g>
			<rect x="1662.6" y="278.3" class="st2" width="28.6" height="4.6"/>
		</g>
	</g>
	<g>
		<g>
			<path class="st3" d="M1548,640.4L1548,640.4c-11.9,11.9-31.1,11.9-43,0L1370.5,506l43-43L1548,597.4
				C1559.9,609.3,1559.9,628.5,1548,640.4z"/>
			<path class="st2" d="M1526.5,651.6c-8.4,0-16.8-3.2-23.1-9.6L1367.3,506l46.3-46.3l136.1,136.1c12.8,12.8,12.8,33.5,0,46.3
				C1543.2,648.4,1534.9,651.6,1526.5,651.6z M1373.8,506l132.8,132.8c11,11,28.8,11,39.7,0c11-11,11-28.8,0-39.7l-132.8-132.8
				L1373.8,506z"/>
		</g>
		<g>
			
				<rect x="1376.9" y="478.1" transform="matrix(0.7071 -0.7071 0.7071 0.7071 58.8549 1141.4452)" class="st2" width="60.8" height="43.1"/>
			<path class="st2" d="M1401,539.7l-33.7-33.7l46.3-46.3l33.7,33.7L1401,539.7z M1373.8,506l27.2,27.2l39.7-39.7l-27.2-27.2
				L1373.8,506z"/>
		</g>
		<g>
			<g>
				
					<ellipse transform="matrix(0.7071 -0.7071 0.7071 0.7071 111.5257 1027.3312)" class="st3" cx="1295.9" cy="379" rx="167.9" ry="167.9"/>
				<path class="st2" d="M1295.9,549.3c-93.9,0-170.2-76.4-170.2-170.2c0-93.9,76.4-170.2,170.2-170.2s170.2,76.4,170.2,170.2
					C1466.1,472.9,1389.7,549.3,1295.9,549.3z M1295.9,213.4c-91.3,0-165.6,74.3-165.6,165.6s74.3,165.6,165.6,165.6
					c91.3,0,165.6-74.3,165.6-165.6S1387.2,213.4,1295.9,213.4z"/>
			</g>
			<circle class="st0" cx="1295.9" cy="379" r="135.9"/>
			<path class="st3" d="M1362.7,260.7l-185.1,185.1c11.5,20.4,28.2,37.5,48.2,49.6l186.5-186.5
				C1400.2,288.9,1383.1,272.3,1362.7,260.7z"/>
			<g>
				<path class="st2" d="M1295.9,517.2c-76.2,0-138.2-62-138.2-138.2c0-76.2,62-138.2,138.2-138.2c76.2,0,138.2,62,138.2,138.2
					C1434,455.2,1372,517.2,1295.9,517.2z M1295.9,245.5c-73.6,0-133.5,59.9-133.5,133.5c0,73.6,59.9,133.5,133.5,133.5
					s133.5-59.9,133.5-133.5C1429.4,305.4,1369.5,245.5,1295.9,245.5z"/>
			</g>
			<g>
				<defs>
					<circle id="SVGID_00000148645394922205556650000007045310226757710991_" cx="1295.9" cy="379" r="135.9"/>
				</defs>
				<clipPath id="SVGID_00000014611031503505393830000012132738376168739469_">
					<use xlink:href="#SVGID_00000148645394922205556650000007045310226757710991_"  style="overflow:visible;"/>
				</clipPath>
				<g style="clip-path:url(#SVGID_00000014611031503505393830000012132738376168739469_);">
					<g>
						<polygon class="st2" points="1298.9,548.6 1262.4,391.4 1266.9,390.3 1298.9,528.4 1331.8,389.6 1336.3,390.7 						"/>
					</g>
					<g>
						<g>
							<polyline class="st3" points="1298.9,407.3 1272,422.7 1264.6,390.8 							"/>
							<polygon class="st2" points="1270.5,426.3 1262.4,391.4 1266.9,390.3 1273.6,419.2 1297.8,405.3 1300.1,409.3 							"/>
						</g>
						<g>
							<polyline class="st3" points="1298.9,407.3 1326.3,423 1333.2,390.8 							"/>
							<polygon class="st2" points="1327.9,426.6 1297.8,409.3 1300.1,405.3 1324.7,419.4 1331,390.4 1335.5,391.3 							"/>
						</g>
					</g>
					<g>
						<path class="st2" d="M1390.2,540.8h-182.6V405.6l91.3-27.5l91.3,27.5V540.8z M1212.2,536.2h173.4V409.1l-86.7-26.1l-86.7,26.1
							V536.2z"/>
					</g>
					<g>
						<g>
							<path class="st2" d="M1240.3,538.5h-4.6V472c0-23.8-9.9-46.7-27.3-62.9l3.2-3.4c18.3,17.1,28.8,41.3,28.8,66.3V538.5z"/>
						</g>
						<g>
							<path class="st2" d="M1362.2,538.5h-4.6V472c0-25,10.5-49.2,28.8-66.3l3.2,3.4c-17.3,16.2-27.3,39.2-27.3,62.9V538.5z"/>
						</g>
					</g>
					<g>
						<polyline class="st3" points="1322.2,370.8 1322.2,387.5 1298.9,407.3 1275.7,387.5 1275.7,370.8 						"/>
						<polygon class="st2" points="1298.9,410.4 1273.3,388.6 1273.3,370.9 1278,370.9 1278,386.5 1298.9,404.3 1319.9,386.5 
							1319.9,370.9 1324.5,370.9 1324.5,388.6 						"/>
					</g>
					<g>
						<path class="st2" d="M1296.7,539.1l-17.5-74.2l0-1.2l17.5-57h4.4l17.5,57l0,1.2l-17.5,74.2H1296.7z M1283.8,464.4l15.1,64.1
							l15.1-64.1l-15.1-49.2L1283.8,464.4z"/>
					</g>
					<g>
						<path class="st2" d="M1310.4,373.2h-22.9c-20.1,0-36.4-16.3-36.4-36.4v-23.5c0-26.4,21.5-47.9,47.9-47.9s47.9,21.5,47.9,47.9
							v23.5C1346.8,356.8,1330.4,373.2,1310.4,373.2z M1298.9,270c-23.8,0-43.2,19.4-43.2,43.2v23.5c0,17.5,14.3,31.8,31.8,31.8
							h22.9c17.5,0,31.8-14.3,31.8-31.8v-23.5C1342.2,289.4,1322.8,270,1298.9,270z"/>
					</g>
					<g>
						<g>
							<path class="st2" d="M1255.7,348.6h-2.3c-9.8,0-17.7-8-17.7-17.7v-1.1c0-9.8,7.9-17.7,17.7-17.7h2.3V348.6z M1251,316.8
								c-6.1,1.1-10.8,6.5-10.8,12.9v1.1c0,6.4,4.7,11.8,10.8,12.9V316.8z"/>
						</g>
						<g>
							<path class="st2" d="M1344.5,350.6h-2.3V314h2.3c9.8,0,17.7,8,17.7,17.7v1.1C1362.2,342.6,1354.3,350.6,1344.5,350.6z
								 M1346.8,318.8v26.9c6.1-1.1,10.8-6.5,10.8-12.9v-1.1C1357.6,325.3,1352.9,319.9,1346.8,318.8z"/>
						</g>
					</g>
					<g>
						<polygon class="st2" points="1296.8,539.5 1258,456.3 1262.1,436.8 1247.1,422.8 1251.1,393.9 1255.6,394.6 1252,421 
							1267.1,435.2 1262.9,455.7 1301,537.5 						"/>
					</g>
					<g>
						<polygon class="st2" points="1301.4,539.5 1297.2,537.5 1335.4,455.7 1331.1,435.2 1346.3,421 1342.6,394.6 1347.2,393.9 
							1351.2,422.8 1336.2,436.8 1340.2,456.3 1339.9,457 						"/>
					</g>
					<g>
						<defs>
							<path id="SVGID_00000049194595608531985010000018124383713316111001_" d="M1298.9,267.7L1298.9,267.7
								c25.2,0,45.6,20.4,45.6,45.6v23.5c0,18.8-15.3,34.1-34.1,34.1h-22.9c-18.8,0-34.1-15.3-34.1-34.1v-23.5
								C1253.4,288.1,1273.8,267.7,1298.9,267.7z"/>
						</defs>
						<clipPath id="SVGID_00000025444924390760878390000015168761490571324849_">
							<use xlink:href="#SVGID_00000049194595608531985010000018124383713316111001_"  style="overflow:visible;"/>
						</clipPath>
						<g style="clip-path:url(#SVGID_00000025444924390760878390000015168761490571324849_);">
							<g>
								<g>
									<path class="st2" d="M1253.7,317.8h-22v-65.1h56.5v30.5C1288.2,302.3,1272.7,317.8,1253.7,317.8z M1236.3,313.2h17.4
										c16.5,0,29.9-13.4,29.9-29.9v-25.9h-47.3V313.2z"/>
								</g>
								<g>
									<path class="st2" d="M1348.6,313.8h-30.5c-19,0-34.5-15.5-34.5-34.5v-22h65.1V313.8z M1288.2,261.9v17.4
										c0,16.5,13.4,29.9,29.9,29.9h25.9v-47.3H1288.2z"/>
								</g>
							</g>
						</g>
					</g>
				</g>
			</g>
		</g>
	</g>
	<g>
		<g>
			<g>
				
					<ellipse transform="matrix(0.7071 -0.7071 0.7071 0.7071 -83.679 945.8533)" class="st3" cx="1099.9" cy="573.9" rx="45.3" ry="45.3"/>
				<path class="st2" d="M1099.9,621.6c-26.3,0-47.7-21.4-47.7-47.7s21.4-47.7,47.7-47.7c26.3,0,47.7,21.4,47.7,47.7
					S1126.2,621.6,1099.9,621.6z M1099.9,530.9c-23.7,0-43,19.3-43,43s19.3,43,43,43c23.7,0,43-19.3,43-43
					S1123.6,530.9,1099.9,530.9z"/>
			</g>
		</g>
		<g>
			<polyline class="st3" points="1119.4,561.5 1098.1,585.9 1084.8,572.6 			"/>
			<polygon class="st2" points="1098.2,589.3 1083.1,574.2 1086.4,570.9 1098,582.5 1117.6,560 1121.1,563 			"/>
		</g>
	</g>
</g>
<g id="TEXTS">
	<g>
		<g>
			<path class="st0" d="M101,346.3H70.2v28.5h34.3v8.6H60v-79.1h42.7v8.6H70.2v25H101V346.3z"/>
			<path class="st0" d="M117.8,383.4v-79.1h11.1l25.3,40c5.9,9.3,10.4,17.6,14.2,25.7l0.2-0.1c-0.9-10.6-1.2-20.2-1.2-32.5v-33.1
				h9.6v79.1h-10.3l-25.1-40.1c-5.5-8.8-10.8-17.8-14.8-26.4l-0.4,0.1c0.6,10,0.8,19.5,0.8,32.6v33.8H117.8z"/>
			<path class="st0" d="M250.3,380.8c-3.8,1.9-11.3,3.8-20.9,3.8c-22.3,0-39.1-14.1-39.1-40c0-24.8,16.8-41.5,41.3-41.5
				c9.9,0,16.1,2.1,18.8,3.5l-2.5,8.3c-3.9-1.9-9.4-3.3-16-3.3c-18.5,0-30.9,11.9-30.9,32.6c0,19.4,11.1,31.8,30.4,31.8
				c6.2,0,12.6-1.3,16.7-3.3L250.3,380.8z"/>
			<path class="st0" d="M328.2,343c0,27.2-16.5,41.7-36.7,41.7c-20.9,0-35.6-16.2-35.6-40.1c0-25.1,15.6-41.5,36.7-41.5
				C314.2,303,328.2,319.5,328.2,343z M266.8,344.3c0,16.9,9.2,32,25.2,32c16.2,0,25.3-14.9,25.3-32.9c0-15.7-8.2-32.2-25.2-32.2
				C275.3,311.3,266.8,326.9,266.8,344.3z"/>
			<path class="st0" d="M341.5,383.4v-79.1h11.1l25.3,40c5.9,9.3,10.4,17.6,14.2,25.7l0.2-0.1c-0.9-10.6-1.2-20.2-1.2-32.5v-33.1
				h9.6v79.1h-10.3l-25.1-40.1c-5.5-8.8-10.8-17.8-14.8-26.4l-0.4,0.1c0.6,10,0.8,19.5,0.8,32.6v33.8H341.5z"/>
			<path class="st0" d="M474,380.8c-3.8,1.9-11.3,3.8-20.9,3.8c-22.3,0-39.1-14.1-39.1-40c0-24.8,16.8-41.5,41.3-41.5
				c9.9,0,16.1,2.1,18.8,3.5l-2.5,8.3c-3.9-1.9-9.4-3.3-16-3.3c-18.5,0-30.9,11.9-30.9,32.6c0,19.4,11.1,31.8,30.4,31.8
				c6.2,0,12.6-1.3,16.7-3.3L474,380.8z"/>
			<path class="st0" d="M486.7,305.3c5.2-1.1,12.6-1.6,19.6-1.6c10.9,0,18,2,22.9,6.5c4,3.5,6.2,8.9,6.2,15
				c0,10.4-6.6,17.4-14.9,20.2v0.4c6.1,2.1,9.7,7.7,11.6,16c2.6,11,4.5,18.7,6.1,21.7h-10.6c-1.3-2.2-3.1-9-5.3-18.9
				c-2.3-10.9-6.6-15-15.8-15.4H497v34.3h-10.2V305.3z M497,341.4h10.4c10.9,0,17.8-6,17.8-15c0-10.2-7.4-14.7-18.2-14.8
				c-4.9,0-8.4,0.5-10.1,0.9V341.4z"/>
			<path class="st0" d="M590.8,346.3h-30.7v28.5h34.3v8.6h-44.5v-79.1h42.7v8.6h-32.5v25h30.7V346.3z"/>
			<path class="st0" d="M631.1,371c4.6,2.8,11.3,5.2,18.3,5.2c10.4,0,16.5-5.5,16.5-13.5c0-7.4-4.2-11.6-14.9-15.7
				c-12.9-4.6-20.9-11.3-20.9-22.4c0-12.3,10.2-21.5,25.6-21.5c8.1,0,14,1.9,17.5,3.9l-2.8,8.3c-2.6-1.4-7.9-3.8-15-3.8
				c-10.8,0-14.9,6.5-14.9,11.9c0,7.4,4.8,11,15.7,15.3c13.4,5.2,20.2,11.6,20.2,23.2c0,12.2-9,22.8-27.7,22.8c-7.6,0-16-2.2-20.2-5
				L631.1,371z"/>
			<path class="st0" d="M731.3,346.3h-30.7v28.5h34.3v8.6h-44.5v-79.1h42.7v8.6h-32.5v25h30.7V346.3z"/>
			<path class="st0" d="M758.3,304.3v46.8c0,17.7,7.9,25.2,18.4,25.2c11.7,0,19.2-7.7,19.2-25.2v-46.8h10.3v46.1
				c0,24.3-12.8,34.3-29.9,34.3c-16.2,0-28.4-9.3-28.4-33.8v-46.6H758.3z"/>
			<path class="st2" d="M60,508.8v-79.1h11.1l25.3,40c5.9,9.3,10.4,17.6,14.2,25.7l0.2-0.1c-0.9-10.6-1.2-20.2-1.2-32.5v-33.1h9.6
				v79.1h-10.3L84,468.7c-5.5-8.8-10.8-17.8-14.8-26.4l-0.4,0.1c0.6,10,0.8,19.5,0.8,32.6v33.8H60z"/>
			<path class="st2" d="M204.9,468.5c0,27.2-16.5,41.7-36.7,41.7c-20.9,0-35.6-16.2-35.6-40.1c0-25.1,15.6-41.5,36.7-41.5
				C190.9,428.4,204.9,445,204.9,468.5z M143.5,469.8c0,16.9,9.2,32,25.2,32c16.2,0,25.3-14.9,25.3-32.9c0-15.7-8.2-32.2-25.2-32.2
				C151.9,436.8,143.5,452.4,143.5,469.8z"/>
			<path class="st2" d="M235.5,508.8l-25.8-79.1h11l12.3,39c3.4,10.7,6.3,20.3,8.4,29.6h0.2c2.2-9.2,5.5-19.1,9-29.5l13.4-39.1H275
				l-28.3,79.1H235.5z"/>
			<path class="st2" d="M351.2,468.5c0,27.2-16.5,41.7-36.7,41.7c-20.9,0-35.6-16.2-35.6-40.1c0-25.1,15.6-41.5,36.7-41.5
				C337.2,428.4,351.2,445,351.2,468.5z M289.8,469.8c0,16.9,9.2,32,25.2,32c16.2,0,25.3-14.9,25.3-32.9c0-15.7-8.2-32.2-25.2-32.2
				C298.3,436.8,289.8,452.4,289.8,469.8z"/>
			<path class="st2" d="M399.6,438.4h-24.1v-8.7h58.6v8.7h-24.2v70.4h-10.3V438.4z"/>
			<path class="st2" d="M442.9,430.8c5.2-1.1,12.6-1.6,19.6-1.6c10.9,0,18,2,22.9,6.5c4,3.5,6.2,8.9,6.2,15
				c0,10.4-6.6,17.4-14.9,20.2v0.4c6.1,2.1,9.7,7.7,11.6,16c2.6,11,4.5,18.7,6.1,21.7h-10.6c-1.3-2.2-3.1-9-5.3-18.9
				c-2.3-10.9-6.6-15-15.8-15.4h-9.6v34.3h-10.2V430.8z M453.1,466.8h10.4c10.9,0,17.8-6,17.8-15c0-10.2-7.4-14.7-18.2-14.8
				c-4.9,0-8.4,0.5-10.1,0.9V466.8z"/>
			<path class="st2" d="M519.4,484l-8.2,24.9h-10.6l26.9-79.1h12.3l27,79.1h-10.9l-8.4-24.9H519.4z M545.3,476l-7.7-22.8
				c-1.8-5.2-2.9-9.9-4.1-14.4h-0.2c-1.2,4.7-2.5,9.5-4,14.3l-7.7,22.9H545.3z"/>
			<path class="st2" d="M578.4,430.8c4.5-0.9,11.5-1.6,18.7-1.6c10.2,0,16.8,1.8,21.7,5.8c4.1,3.1,6.6,7.7,6.6,14
				c0,7.6-5,14.3-13.4,17.4v0.2c7.5,1.9,16.3,8.1,16.3,19.8c0,6.8-2.7,12-6.7,15.8c-5.5,5-14.4,7.4-27.3,7.4c-7,0-12.4-0.5-15.8-0.9
				V430.8z M588.6,463.2h9.3c10.8,0,17.1-5.6,17.1-13.3c0-9.3-7-12.9-17.4-12.9c-4.7,0-7.4,0.4-9,0.7V463.2z M588.6,501.1
				c2,0.4,4.9,0.5,8.6,0.5c10.6,0,20.3-3.9,20.3-15.4c0-10.8-9.3-15.3-20.4-15.3h-8.4V501.1z"/>
			<path class="st2" d="M654.8,484l-8.2,24.9H636l26.9-79.1h12.3l27,79.1h-10.9l-8.4-24.9H654.8z M680.7,476l-7.7-22.8
				c-1.8-5.2-2.9-9.9-4.1-14.4h-0.2c-1.2,4.7-2.5,9.5-4,14.3l-7.7,22.9H680.7z"/>
			<path class="st2" d="M713.8,429.7H724v70.5h33.8v8.6h-44V429.7z"/>
			<path class="st2" d="M779.4,429.7v33.1h38.3v-33.1H828v79.1h-10.3v-37.1h-38.3v37.1h-10.2v-79.1H779.4z"/>
			<path class="st2" d="M913.3,468.5c0,27.2-16.5,41.7-36.7,41.7c-20.9,0-35.6-16.2-35.6-40.1c0-25.1,15.6-41.5,36.7-41.5
				C899.4,428.4,913.3,445,913.3,468.5z M852,469.8c0,16.9,9.2,32,25.2,32c16.2,0,25.3-14.9,25.3-32.9c0-15.7-8.2-32.2-25.2-32.2
				C860.4,436.8,852,452.4,852,469.8z"/>
		</g>
	</g>
	<g>
		<g>
			<path class="st1" d="M60.4,255.2v-35.6h5l11.4,18c2.6,4.2,4.7,7.9,6.4,11.6l0.1-0.1c-0.4-4.8-0.5-9.1-0.5-14.6v-14.9h4.3v35.6
				h-4.6l-11.3-18.1c-2.5-4-4.9-8-6.7-11.9l-0.2,0.1c0.3,4.5,0.4,8.8,0.4,14.7v15.2H60.4z"/>
			<path class="st1" d="M118.1,242.2c0,9.4-6.5,13.6-12.7,13.6c-6.9,0-12.2-5.1-12.2-13.1c0-8.6,5.6-13.6,12.7-13.6
				C113.2,229,118.1,234.4,118.1,242.2z M97.9,242.5c0,5.6,3.2,9.8,7.8,9.8c4.4,0,7.8-4.2,7.8-9.9c0-4.3-2.2-9.8-7.7-9.8
				S97.9,237.6,97.9,242.5z"/>
			<path class="st1" d="M125.4,229.6l5,14.4c0.8,2.3,1.5,4.4,2.1,6.5h0.2c0.6-2.1,1.3-4.2,2.2-6.5l5-14.4h4.9l-10,25.5h-4.4
				l-9.7-25.5H125.4z"/>
			<path class="st1" d="M171.6,242.2c0,9.4-6.5,13.6-12.7,13.6c-6.9,0-12.2-5.1-12.2-13.1c0-8.6,5.6-13.6,12.7-13.6
				C166.6,229,171.6,234.4,171.6,242.2z M151.3,242.5c0,5.6,3.2,9.8,7.8,9.8c4.4,0,7.8-4.2,7.8-9.9c0-4.3-2.2-9.8-7.7-9.8
				S151.3,237.6,151.3,242.5z"/>
			<path class="st1" d="M176.8,250.4c1.4,0.9,3.8,1.8,6.1,1.8c3.4,0,5-1.7,5-3.8c0-2.2-1.3-3.4-4.8-4.7c-4.6-1.6-6.8-4.2-6.8-7.2
				c0-4.1,3.3-7.5,8.8-7.5c2.6,0,4.9,0.7,6.3,1.6l-1.2,3.4c-1-0.6-2.9-1.5-5.2-1.5c-2.7,0-4.3,1.6-4.3,3.5c0,2.1,1.5,3.1,4.9,4.3
				c4.4,1.7,6.7,3.9,6.7,7.7c0,4.5-3.5,7.7-9.6,7.7c-2.8,0-5.4-0.7-7.2-1.7L176.8,250.4z"/>
			<path class="st1" d="M231.6,217.7v30.9c0,2.3,0.1,4.9,0.2,6.6h-4.2l-0.2-4.4h-0.1c-1.4,2.9-4.5,5-8.7,5c-6.2,0-10.9-5.2-10.9-13
				c-0.1-8.5,5.2-13.7,11.5-13.7c3.9,0,6.5,1.8,7.7,3.9h0.1v-15.3H231.6z M227,240c0-0.6-0.1-1.4-0.2-2c-0.7-3-3.2-5.4-6.7-5.4
				c-4.8,0-7.7,4.2-7.7,9.9c0,5.2,2.5,9.4,7.5,9.4c3.1,0,6-2.1,6.8-5.5c0.2-0.6,0.2-1.3,0.2-2V240z"/>
			<path class="st1" d="M241.9,243.2c0.1,6.3,4.1,8.9,8.8,8.9c3.3,0,5.3-0.6,7.1-1.3l0.8,3.3c-1.6,0.7-4.4,1.6-8.5,1.6
				c-7.9,0-12.6-5.2-12.6-12.9s4.5-13.8,12-13.8c8.3,0,10.6,7.3,10.6,12c0,1-0.1,1.7-0.2,2.2H241.9z M255.5,239.9
				c0.1-3-1.2-7.5-6.4-7.5c-4.7,0-6.8,4.3-7.1,7.5H255.5z"/>
			<path class="st1" d="M265.1,250.4c1.4,0.9,3.8,1.8,6.1,1.8c3.4,0,5-1.7,5-3.8c0-2.2-1.3-3.4-4.8-4.7c-4.6-1.6-6.8-4.2-6.8-7.2
				c0-4.1,3.3-7.5,8.8-7.5c2.6,0,4.9,0.7,6.3,1.6l-1.2,3.4c-1-0.6-2.9-1.5-5.2-1.5c-2.7,0-4.3,1.6-4.3,3.5c0,2.1,1.5,3.1,4.9,4.3
				c4.4,1.7,6.7,3.9,6.7,7.7c0,4.5-3.5,7.7-9.6,7.7c-2.8,0-5.4-0.7-7.2-1.7L265.1,250.4z"/>
			<path class="st1" d="M300.8,255.2l-0.4-3.2h-0.2c-1.4,2-4.2,3.8-7.8,3.8c-5.2,0-7.8-3.6-7.8-7.3c0-6.2,5.5-9.6,15.4-9.5v-0.5
				c0-2.1-0.6-5.9-5.8-5.9c-2.4,0-4.9,0.7-6.7,1.9l-1.1-3.1c2.1-1.4,5.2-2.3,8.4-2.3c7.8,0,9.7,5.3,9.7,10.5v9.6
				c0,2.2,0.1,4.4,0.4,6.1H300.8z M300.1,242.1c-5.1-0.1-10.8,0.8-10.8,5.8c0,3,2,4.4,4.4,4.4c3.3,0,5.4-2.1,6.2-4.3
				c0.2-0.5,0.3-1,0.3-1.5V242.1z"/>
			<path class="st1" d="M312.6,255.2v-22H309v-3.5h3.6v-1.4c0-6.8,4-11.1,11.1-11.1c2.4,0,5.2,0.7,6.5,1.7l-1.3,3.5
				c-1.1-0.8-3.1-1.5-5.4-1.5c-4.9,0-6.3,3.4-6.3,7.5v1.3H332v25.5h-4.6v-22h-10.2v22H312.6z"/>
			<path class="st1" d="M362.8,242.2c0,9.4-6.5,13.6-12.7,13.6c-6.9,0-12.2-5.1-12.2-13.1c0-8.6,5.6-13.6,12.7-13.6
				C357.9,229,362.8,234.4,362.8,242.2z M342.6,242.5c0,5.6,3.2,9.8,7.8,9.8c4.4,0,7.8-4.2,7.8-9.9c0-4.3-2.2-9.8-7.7-9.8
				S342.6,237.6,342.6,242.5z"/>
			<path class="st1" d="M368.1,250.4c1.4,0.9,3.8,1.8,6.1,1.8c3.4,0,5-1.7,5-3.8c0-2.2-1.3-3.4-4.8-4.7c-4.6-1.6-6.8-4.2-6.8-7.2
				c0-4.1,3.3-7.5,8.8-7.5c2.6,0,4.9,0.7,6.3,1.6l-1.2,3.4c-1-0.6-2.9-1.5-5.2-1.5c-2.7,0-4.3,1.6-4.3,3.5c0,2.1,1.5,3.1,4.9,4.3
				c4.4,1.7,6.7,3.9,6.7,7.7c0,4.5-3.5,7.7-9.6,7.7c-2.8,0-5.4-0.7-7.2-1.7L368.1,250.4z"/>
		</g>
	</g>
</g>
</svg>
