<?xml version="1.0" encoding="utf-8"?>
<!-- Generator: Adobe Illustrator 26.3.1, SVG Export Plug-In . SVG Version: 6.00 Build 0)  -->
<svg version="1.1" id="Слой_1" xmlns="http://www.w3.org/2000/svg" xmlns:xlink="http://www.w3.org/1999/xlink" x="0px" y="0px"
	 viewBox="0 0 3500 2000" style="enable-background:new 0 0 3500 2000;" xml:space="preserve">
<style type="text/css">
	.st0{fill:#FFFFFF;}
	.st1{fill:#E7F3FE;}
	.st2{fill:#9EC8FF;}
	.st3{opacity:0.8;}
	.st4{fill:#F37168;}
	.st5{fill:#CCE2FF;}
	.st6{fill:#99BBEB;}
	.st7{fill:#9BD6E8;}
	.st8{fill:#3A384D;}
	.st9{fill:#F09959;}
	.st10{fill:#E38540;}
	.st11{fill:#7A4E34;}
	.st12{fill:#D54A41;}
	.st13{opacity:0.2;fill:#99BBEB;}
	.st14{fill:#2E2D3D;}
	.st15{fill:#D5E1E8;}
	.st16{fill:#BDCCD4;}
	.st17{fill:#2E5B9A;}
	.st18{fill:#6791C9;}
	.st19{fill:#75A1DE;}
	.st20{fill:#F2E5DE;}
	.st21{fill:#303C60;}
	.st22{fill:#74B570;}
	.st23{fill:#9CD499;}
</style>
<rect class="st0" width="3500" height="2000"/>
<g>
	<path class="st1" d="M670.2,284.8c415.5-154.2,837.7-17.9,1124.1,279.1c286.4,297,887.4-205,1206.2,91.5
		c217.5,202.4,117.9,722.6-180.4,948c-405.4,306.3-1638.4,150.9-1905.1,98.8c-307.3-60.1-531.9-242.3-623.2-463.4
		C71.9,705.9,486.6,353,670.2,284.8z"/>
	<g>
		<g>
			<path class="st2" d="M2090.3,499.1c1.4-12.6,2.2-25.3,2.2-38.3c0-6.8-0.2-13.6-0.6-20.3l-63.3-20.5
				c-3.9-26.7-11.5-52.1-22.4-75.8l42-51.6c-9.7-17.1-20.8-33.2-33.2-48.3l-63.3,20.6c-18.4-18.8-39.5-35.1-62.6-48.2l3.6-66.5
				c-17.7-8-36.1-14.6-55.2-19.6l-39.1,53.9c-15.2-2.6-30.9-3.9-46.8-3.9c-10.9,0-21.6,0.6-32.2,1.8l-36.2-55.9
				c-19.4,3.9-38.2,9.5-56.2,16.6l0.1,66.6c-23.8,11.8-45.7,27-65.1,44.8l-62.1-24c-13.2,14.4-25.2,30-35.8,46.5l39.2,53.8
				c-12.1,23.1-21.1,48.1-26.4,74.5l-64.3,17.1c-1.4,12.6-2.2,25.3-2.2,38.3c0,6.8,0.2,13.6,0.6,20.3l63.3,20.5
				c3.9,26.7,11.5,52.1,22.4,75.8l-42,51.6c9.7,17.1,20.8,33.2,33.2,48.3l63.3-20.6c18.4,18.8,39.5,35.1,62.6,48.2l-3.6,66.5
				c17.7,8,36.1,14.6,55.2,19.6l39.1-53.9c15.2,2.6,30.9,3.9,46.8,3.9c10.9,0,21.6-0.6,32.2-1.8l36.2,55.9
				c19.4-3.9,38.2-9.5,56.2-16.6l-0.1-66.6c23.8-11.8,45.7-27,65.1-44.8l62.1,24c13.2-14.4,25.2-30,35.8-46.5l-39.2-53.8
				c12.1-23.1,21.1-48.1,26.4-74.5L2090.3,499.1z M1751.4,594.6c-73.9,0-133.8-59.9-133.8-133.8c0-73.9,59.9-133.8,133.8-133.8
				s133.8,59.9,133.8,133.8C1885.2,534.7,1825.3,594.6,1751.4,594.6z"/>
			<g>
				<path class="st0" d="M1933.9,613.4c-1.1,0-2.3-0.4-3.2-1.2c-2.1-1.8-2.4-4.9-0.6-7c33.6-40.4,52.1-91.7,52.1-144.4
					c0-25.2-4.1-50-12.3-73.6c-0.9-2.6,0.5-5.5,3.1-6.4c2.6-0.9,5.5,0.5,6.4,3.1c8.5,24.7,12.8,50.5,12.8,76.9
					c0,55-19.3,108.5-54.4,150.8C1936.7,612.7,1935.3,613.4,1933.9,613.4z"/>
			</g>
			<g>
				<path class="st0" d="M1914.5,297.6c-1.2,0-2.5-0.5-3.4-1.4c-22.6-21.3-48.8-37.4-77.8-47.9c-2.6-0.9-3.9-3.8-3-6.4
					s3.8-3.9,6.4-3c30.3,11,57.6,27.8,81.2,50c2,1.9,2.1,5.1,0.2,7.1C1917.2,297.1,1915.8,297.6,1914.5,297.6z"/>
			</g>
			<g>
				<path class="st0" d="M1699.5,241.9c-2.2,0-4.3-1.5-4.8-3.8c-0.7-2.7,0.9-5.4,3.6-6.1c18.8-4.8,38.3-7.2,57.9-7.2
					c2.8,0,5,2.2,5,5c0,2.8-2.2,5-5,5c-18.8,0-37.4,2.3-55.5,6.9C1700.3,241.8,1699.9,241.9,1699.5,241.9z"/>
			</g>
		</g>
		<g>
			<path class="st2" d="M1015.1,1346.1c1-8.7,1.5-17.6,1.5-26.5c0-4.7-0.2-9.4-0.4-14.1l-43.8-14.2c-2.7-18.5-8-36.1-15.5-52.5
				l29.1-35.8c-6.7-11.8-14.4-23-23-33.5l-43.8,14.3c-12.8-13.1-27.4-24.3-43.4-33.4l2.5-46.1c-12.2-5.6-25-10.1-38.3-13.6
				l-27.1,37.4c-10.5-1.8-21.4-2.7-32.4-2.7c-7.5,0-15,0.4-22.3,1.3l-25.1-38.7c-13.4,2.7-26.4,6.6-38.9,11.5l0.1,46.1
				c-16.5,8.2-31.7,18.7-45.1,31l-43-16.6c-9.1,10-17.4,20.8-24.8,32.2l27.1,37.3c-8.4,16-14.6,33.4-18.3,51.6l-44.5,11.8
				c-1,8.7-1.5,17.6-1.5,26.5c0,4.7,0.2,9.4,0.4,14.1l43.8,14.2c2.7,18.5,8,36.1,15.5,52.5l-29.1,35.8c6.7,11.8,14.4,23,23,33.5
				l43.8-14.3c12.8,13.1,27.4,24.3,43.4,33.4l-2.5,46.1c12.2,5.6,25,10.1,38.3,13.6l27.1-37.4c10.6,1.8,21.4,2.7,32.4,2.7
				c7.5,0,15-0.4,22.3-1.3l25.1,38.7c13.4-2.7,26.4-6.6,38.9-11.5l-0.1-46.1c16.5-8.2,31.7-18.7,45.1-31l43,16.6
				c9.1-10,17.4-20.8,24.8-32.2l-27.1-37.3c8.4-16,14.6-33.4,18.3-51.6L1015.1,1346.1z M780.4,1412.2c-51.2,0-92.7-41.5-92.7-92.7
				s41.5-92.7,92.7-92.7c51.2,0,92.7,41.5,92.7,92.7S831.6,1412.2,780.4,1412.2z"/>
			<g>
				<path class="st0" d="M906.8,1426.8c-1.1,0-2.3-0.4-3.2-1.2c-2.1-1.8-2.4-4.9-0.6-7c23.1-27.7,35.8-62.9,35.8-99
					c0-17.3-2.8-34.3-8.4-50.5c-0.9-2.6,0.5-5.5,3.1-6.4c2.6-0.9,5.5,0.5,6.4,3.1c5.9,17.3,9,35.3,9,53.7
					c0,38.5-13.5,75.9-38.1,105.4C909.6,1426.2,908.2,1426.8,906.8,1426.8z"/>
			</g>
			<g>
				<path class="st0" d="M893.4,1208.1c-1.2,0-2.5-0.5-3.4-1.4c-15.5-14.6-33.4-25.6-53.3-32.9c-2.6-0.9-3.9-3.8-3-6.4
					c0.9-2.6,3.8-3.9,6.4-3c21.2,7.7,40.3,19.5,56.8,35c2,1.9,2.1,5.1,0.2,7.1C896,1207.6,894.7,1208.1,893.4,1208.1z"/>
			</g>
			<g>
				<path class="st0" d="M744.5,1169.5c-2.2,0-4.3-1.5-4.8-3.8c-0.7-2.7,0.9-5.4,3.6-6.1c13.2-3.3,26.8-5,40.5-5c2.8,0,5,2.2,5,5
					s-2.2,5-5,5c-12.9,0-25.7,1.6-38,4.7C745.3,1169.4,744.9,1169.5,744.5,1169.5z"/>
			</g>
		</g>
		<path class="st2" d="M2294.6,753.8c0-2.6-0.1-5.2-0.2-7.7l32.8-26.4c-2.6-13.2-6.6-25.8-11.9-37.7l-42.4-3.2
			c-9.6-15.2-22.1-28.4-36.7-38.9l-0.1-42.3c-11.8-6.2-24.4-11.1-37.6-14.5l-29,31.2c-5-0.5-10.1-0.8-15.2-0.8
			c-12.8,0-25.1,1.7-36.9,4.9l-33.2-26.3c-12.5,5.4-24.3,12.3-35.1,20.4l6.3,41.9c-12.4,12.3-22.5,27-29.6,43.2l-41.3,9.6
			c-3.5,12.8-5.6,26.1-6.1,39.8l36.4,21.1c1.9,18.4,7.3,35.8,15.6,51.5l-18.2,38.2c7.8,10.7,16.8,20.5,26.8,29.1l39-15.3
			c15.3,10,32.8,17.1,51.5,20.4l18.4,37.9c2.2,0.1,4.4,0.1,6.6,0.1c11,0,21.8-1,32.3-3l12.4-40.1c18.1-6.1,34.5-15.7,48.4-28.1
			l41,9.2c8.4-9.9,15.8-20.7,21.9-32.3l-23.8-34.9C2291.7,786.1,2294.6,770.3,2294.6,753.8z M2152.7,815.7
			c-32.6,0-59.1-26.5-59.1-59.1c0-32.6,26.5-59.1,59.1-59.1c32.6,0,59.1,26.5,59.1,59.1C2211.8,789.2,2185.4,815.7,2152.7,815.7z"/>
	</g>
	<g>
		<g class="st3">
			<path class="st2" d="M2841,413.3h-50.8c-19.6,0-35.6-16-35.6-35.6v-50.8c0-19.6,16-35.6,35.6-35.6h50.8c19.6,0,35.6,16,35.6,35.6
				v50.8C2876.5,397.4,2860.6,413.3,2841,413.3z M2790.2,305.4c-11.9,0-21.6,9.7-21.6,21.6v50.8c0,11.9,9.7,21.6,21.6,21.6h50.8
				c11.9,0,21.6-9.7,21.6-21.6v-50.8c0-11.9-9.7-21.6-21.6-21.6H2790.2z"/>
		</g>
		<g class="st3">
			<path class="st2" d="M2601.9,413.3h-50.8c-19.6,0-35.6-16-35.6-35.6v-50.8c0-19.6,16-35.6,35.6-35.6h50.8
				c19.6,0,35.6,16,35.6,35.6v50.8C2637.5,397.4,2621.6,413.3,2601.9,413.3z M2551.1,305.4c-11.9,0-21.6,9.7-21.6,21.6v50.8
				c0,11.9,9.7,21.6,21.6,21.6h50.8c11.9,0,21.6-9.7,21.6-21.6v-50.8c0-11.9-9.7-21.6-21.6-21.6H2551.1z"/>
		</g>
		<g>
			<path class="st4" d="M2579.7,383.7c-0.1,0-0.2,0-0.3,0c-1.8-0.1-3.4-0.9-4.5-2.3l-36.5-47.6c-2-2.6-1.5-6.4,1.1-8.4
				c2.6-2,6.4-1.5,8.4,1.1l32.2,42l84.1-90.1c2.3-2.4,6.1-2.6,8.5-0.3c2.4,2.3,2.6,6.1,0.3,8.5l-88.9,95.3
				C2583,383.1,2581.4,383.7,2579.7,383.7z"/>
		</g>
	</g>
	<path class="st5" d="M3008.9,1725.3c-208-10.2-915.5,7.1-1130.6,13.8c-215.2,6.7-464.9-8.9-594.7-31.8
		c-129.7-22.9-879.7,1.9-845.6,63.5c34,61.6,334.1,27.5,674.4,52.3c340.3,24.8,1105.7-3.1,1278.3,0c172.6,3.1,331-6.2,553.4-18.6
		S3129.4,1731.2,3008.9,1725.3z"/>
	<g>
		<rect x="448.4" y="437.6" class="st6" width="434.7" height="712.6"/>
		<rect x="471.2" y="452.1" class="st0" width="397.7" height="670.9"/>
		<g>
			<g>
				<path class="st7" d="M590.1,721.1c15-32.2,40.3-42.5,81.9-42.5c49.5,0,75.3,17.9,82.5,44.1C665.9,723.9,590.1,721.1,590.1,721.1
					z"/>
				<path class="st8" d="M654.7,522c-21,5.9-20,17.7-27,28.6c-7,10.9-22.2,18.2-24,25.5c-1.8,7.3,4.7,22.5-3,31
					c-7.7,8.5-10.3,12.8-7.3,21.3c3,8.5,9.7,21.9,10.3,23.7c0.6,1.8,9.1,14.6,19.4,16.4c10.3,1.8,29.8,4.9,39.5,9.1
					c9.7,4.3,41-5.4,58.3-4.8c17.3,0.6,29.2-12.2,27.9-20.7c-1.2-8.5,12.8-25.5,12.8-40.1c0-15.7-18.2-27.3-23.1-37.7
					c-4.9-10.3,0.6-28.6-17.6-39.4c-11.5-6.8-19.4-6.2-28.6-9.3C683.3,522.7,668.1,518.3,654.7,522z"/>
				<path class="st9" d="M680.2,704.3c-4.7,7-8.2,7.3-13.4,0c-4.1-5.8-12.2-19-12.2-25.7V612c0-6.7,5.5-12.2,12.2-12.2h13.4
					c6.7,0,12.2,5.5,12.2,12.2v66.7C692.4,685.4,684.5,698.1,680.2,704.3z"/>
				<path class="st10" d="M680.2,599.8h-13.4c-6.7,0-12.2,5.5-12.2,12.2v59.5c15,4.8,28.7-4.7,37.7-15.4V612
					C692.4,605.3,686.9,599.8,680.2,599.8z"/>
				<ellipse class="st9" cx="673.6" cy="600.5" rx="40.4" ry="55.1"/>
				<path class="st8" d="M692.4,556.7c-25.5,43.1-63.2,38.9-63.2,38.9s0.9-57.1,30.8-60.1c29.9-3,47.5,9,53.6,28.8
					c6.1,19.8,0,32.9,0,32.9s-9.7-7.6-14.6-19.7C694.2,565.2,692.4,556.7,692.4,556.7z"/>
				<path class="st9" d="M637.3,599.7c3.8,8,2.5,16.4-2.8,19c-5.3,2.5-12.7-1.9-16.4-9.8c-3.8-8-2.5-16.4,2.8-19
					C626.2,587.3,633.5,591.7,637.3,599.7z"/>
				<path class="st9" d="M708,599.7c-3.8,8-2.5,16.4,2.8,19c5.3,2.5,12.7-1.9,16.4-9.8c3.8-8,2.5-16.4-2.8-19
					C719.1,587.3,711.8,591.7,708,599.7z"/>
				<path class="st0" d="M688.7,630.4c0,0-6.8,8.8-15.2,8.8c-8.4,0-15.2-8.8-15.2-8.8H688.7z"/>
			</g>
			<path class="st6" d="M721.7,808.5h-102c-6.5,0-11.9-5.3-11.9-11.9c0-6.5,5.3-11.9,11.9-11.9h102c6.5,0,11.9,5.3,11.9,11.9
				C733.5,803.1,728.2,808.5,721.7,808.5z"/>
			<path class="st6" d="M740.3,844.9H600.9c-6.5,0-11.9-5.3-11.9-11.9c0-6.5,5.3-11.9,11.9-11.9h139.4c6.5,0,11.9,5.3,11.9,11.9
				C752.2,839.6,746.9,844.9,740.3,844.9z"/>
			<path class="st6" d="M840.2,976H501.1c-3.8,0-6.9-3.1-6.9-6.9s3.1-6.9,6.9-6.9h339.1c3.8,0,6.9,3.1,6.9,6.9S844,976,840.2,976z"
				/>
			<path class="st6" d="M840.2,1008H501.1c-3.8,0-6.9-3.1-6.9-6.9c0-3.8,3.1-6.9,6.9-6.9h339.1c3.8,0,6.9,3.1,6.9,6.9
				C847.1,1004.9,844,1008,840.2,1008z"/>
			<path class="st6" d="M840.2,1040H501.1c-3.8,0-6.9-3.1-6.9-6.9s3.1-6.9,6.9-6.9h339.1c3.8,0,6.9,3.1,6.9,6.9S844,1040,840.2,1040
				z"/>
			<g>
				<path class="st6" d="M792.8,729.1H548.5c-6.8,0-12.3-5.5-12.3-12.3V491.7c0-6.8,5.5-12.3,12.3-12.3h244.2
					c6.8,0,12.3,5.5,12.3,12.3v225.1C805,723.5,799.5,729.1,792.8,729.1z M548.5,489.4c-1.2,0-2.3,1-2.3,2.3v225.1
					c0,1.2,1,2.3,2.3,2.3h244.2c1.2,0,2.3-1,2.3-2.3V491.7c0-1.2-1-2.3-2.3-2.3H548.5z"/>
			</g>
			<g>
				<polygon class="st6" points="583.8,875.9 590.8,890.2 606.6,892.5 595.2,903.7 597.9,919.4 583.8,912 569.6,919.4 572.3,903.7 
					560.9,892.5 576.7,890.2 				"/>
				<polygon class="st6" points="641.7,875.9 648.8,890.2 664.6,892.5 653.1,903.7 655.8,919.4 641.7,912 627.5,919.4 630.2,903.7 
					618.8,892.5 634.6,890.2 				"/>
				<polygon class="st6" points="699.6,875.9 706.7,890.2 722.5,892.5 711,903.7 713.7,919.4 699.6,912 685.5,919.4 688.2,903.7 
					676.7,892.5 692.5,890.2 				"/>
				<polygon class="st6" points="757.5,875.9 764.6,890.2 780.4,892.5 769,903.7 771.7,919.4 757.5,912 743.4,919.4 746.1,903.7 
					734.6,892.5 750.4,890.2 				"/>
			</g>
		</g>
	</g>
	<g>
		<rect x="1417.6" y="437.6" class="st6" width="434.7" height="712.6"/>
		<rect x="1440.4" y="452.1" class="st0" width="397.7" height="670.9"/>
		<g>
			<g>
				<path class="st11" d="M1578.2,596.9c0,31.9,19.2,83.4,64.5,81.8c45.3-1.7,55.4-50.7,57.1-64.6
					C1701.6,600.2,1578.2,596.9,1578.2,596.9z"/>
				<path class="st12" d="M1559.3,721.1c15-32.2,40.3-42.5,81.9-42.5c49.5,0,75.3,17.9,82.5,44.1
					C1635.1,723.9,1559.3,721.1,1559.3,721.1z"/>
				<path class="st9" d="M1649.5,704.3c-4.7,7-8.2,7.3-13.4,0c-4.1-5.8-12.2-19-12.2-25.7V612c0-6.7,5.5-12.2,12.2-12.2h13.4
					c6.7,0,12.2,5.5,12.2,12.2v66.7C1661.6,685.4,1653.7,698.1,1649.5,704.3z"/>
				<path class="st10" d="M1649.5,599.8h-13.4c-6.7,0-12.2,5.5-12.2,12.2v59.5c15,4.8,28.7-4.7,37.7-15.4V612
					C1661.6,605.3,1656.1,599.8,1649.5,599.8z"/>
				<ellipse class="st9" cx="1642.8" cy="600.5" rx="40.4" ry="55.1"/>
				<path class="st11" d="M1665,558.7c-4.8,16.9-15.3,16.7-30,22.3c-14.7,5.6-21.7,11.2-26.5,22c-6.1,13.8,2.8,54.1,2.8,54.1
					s-37.1-27.8-32.9-71.5c4.3-43.7,30.1-60.6,54.3-60.6c24.3,0,33.5,14.8,33.5,14.8s12.9,0.1,25.1,14.5c16.4,19.5,11.4,66.7,0,83.6
					c-11.4,16.9-19,22.2-18.7,21.5c0.3-0.8,10.6-39.6,5.1-63.7C1672.2,571.6,1665,558.7,1665,558.7z"/>
				<path class="st0" d="M1658,630.4c0,0-6.8,8.8-15.2,8.8s-15.2-8.8-15.2-8.8H1658z"/>
			</g>
			<path class="st6" d="M1690.9,808.5h-102c-6.5,0-11.9-5.3-11.9-11.9c0-6.5,5.3-11.9,11.9-11.9h102c6.5,0,11.9,5.3,11.9,11.9
				C1702.7,803.1,1697.4,808.5,1690.9,808.5z"/>
			<path class="st6" d="M1709.6,844.9h-139.4c-6.5,0-11.9-5.3-11.9-11.9c0-6.5,5.3-11.9,11.9-11.9h139.4c6.5,0,11.9,5.3,11.9,11.9
				C1721.4,839.6,1716.1,844.9,1709.6,844.9z"/>
			<path class="st6" d="M1809.4,976h-339.1c-3.8,0-6.9-3.1-6.9-6.9s3.1-6.9,6.9-6.9h339.1c3.8,0,6.9,3.1,6.9,6.9
				S1813.2,976,1809.4,976z"/>
			<path class="st6" d="M1809.4,1008h-339.1c-3.8,0-6.9-3.1-6.9-6.9c0-3.8,3.1-6.9,6.9-6.9h339.1c3.8,0,6.9,3.1,6.9,6.9
				C1816.3,1004.9,1813.2,1008,1809.4,1008z"/>
			<path class="st6" d="M1809.4,1040h-339.1c-3.8,0-6.9-3.1-6.9-6.9s3.1-6.9,6.9-6.9h339.1c3.8,0,6.9,3.1,6.9,6.9
				S1813.2,1040,1809.4,1040z"/>
			<g>
				<path class="st6" d="M1762,729.1h-244.2c-6.8,0-12.3-5.5-12.3-12.3V491.7c0-6.8,5.5-12.3,12.3-12.3H1762
					c6.8,0,12.3,5.5,12.3,12.3v225.1C1774.3,723.5,1768.7,729.1,1762,729.1z M1517.7,489.4c-1.2,0-2.3,1-2.3,2.3v225.1
					c0,1.2,1,2.3,2.3,2.3H1762c1.2,0,2.3-1,2.3-2.3V491.7c0-1.2-1-2.3-2.3-2.3H1517.7z"/>
			</g>
			<g>
				<polygon class="st6" points="1553,875.9 1560.1,890.2 1575.9,892.5 1564.4,903.7 1567.1,919.4 1553,912 1538.8,919.4 
					1541.5,903.7 1530.1,892.5 1545.9,890.2 				"/>
				<polygon class="st6" points="1610.9,875.9 1618,890.2 1633.8,892.5 1622.3,903.7 1625,919.4 1610.9,912 1596.8,919.4 
					1599.5,903.7 1588,892.5 1603.8,890.2 				"/>
				<polygon class="st6" points="1668.8,875.9 1675.9,890.2 1691.7,892.5 1680.3,903.7 1683,919.4 1668.8,912 1654.7,919.4 
					1657.4,903.7 1645.9,892.5 1661.7,890.2 				"/>
				<polygon class="st6" points="1726.7,875.9 1733.8,890.2 1749.6,892.5 1738.2,903.7 1740.9,919.4 1726.7,912 1712.6,919.4 
					1715.3,903.7 1703.8,892.5 1719.7,890.2 				"/>
			</g>
		</g>
	</g>
	<polygon class="st13" points="1466.5,1143 780.4,1143 828.9,440.2 1491.2,440.2 	"/>
	<g>
		<rect x="852.5" y="307.3" class="st6" width="593.8" height="973.3"/>
		<rect x="883.6" y="327.1" class="st0" width="543.2" height="916.3"/>
		<g>
			<g>
				<path class="st14" d="M1104.5,519.6c-0.4-1.1-9.9-55.7-11-76.9c-1.1-21.2,34.1-24.3,34.1-24.3s28.8-15.5,49.7-7.6
					c20.8,8,35,21.4,44.5,38c9.5,16.7-8.3,68.7-8.3,68.7L1104.5,519.6z"/>
				<path class="st15" d="M1039.2,694.9c-0.1-0.9,2.4-22.4,2.5-23.2c4.8-45.2,60.6-58,116.2-58c65.4,0,109.7,12,116.8,59
					c0.2,1.4,4,22.9,3.8,24.4C1157.3,698.7,1039.2,694.9,1039.2,694.9z"/>
				<path class="st9" d="M1169.1,648.8c-6.5,9.6-11.2,10-18.3,0c-5.6-7.9-24.3-26-24.3-35.1l7.7-91c0-9.1,7.5-16.6,16.6-16.6h18.3
					c9.1,0,16.6,7.5,16.6,16.6l3.6,91C1189.3,622.9,1174.9,640.3,1169.1,648.8z"/>
				<path class="st10" d="M1169.1,506.1h-18.3c-9.1,0-16.6,7.5-16.6,16.6l-6.7,80.8c20.5,6.5,48.2-6.7,60.4-21.4l-2.3-59.4
					C1185.7,513.6,1178.2,506.1,1169.1,506.1z"/>
				<path class="st16" d="M1097.3,620.4l29.3,54.1c0,0,15.7-12.9,17.2-10.4c1.5,2.5-2.8,34.4-2.8,34.4s34.9,0.5,36.4-1
					c1.5-1.5-7.1-34.6-3.5-34.6c3.5,0,14.2,9.6,14.2,9.6l32.7-52.1l-7.2-1.7l-53.5,28.8l-57.3-28.2L1097.3,620.4z"/>
				<polygon class="st12" points="1130.8,645.3 1152.5,659.9 1145.8,698.6 1175.1,696.9 1167.8,661.7 1185.8,645.3 1177.4,637.3 
					1139.3,637.3 				"/>
				<path class="st15" d="M1128.1,593.8l-26.9,25.6c0,0,27.4,48.7,28.9,48.7c1.5,0,23.2-26.9,23.2-26.9l13.9-0.2l22,23.1l25.5-45.2
					l-26-27.6c0,0-22.2,43-26.3,44c-4,1-4.1,1.5-7.3-1S1128.1,593.8,1128.1,593.8z"/>
				<ellipse class="st9" cx="1160" cy="507" rx="55.2" ry="75.2"/>
				<path class="st9" d="M1110.5,505.9c5.2,10.9,3.5,22.5-3.8,25.9c-7.2,3.4-17.3-2.6-22.5-13.4c-5.2-10.9-3.5-22.5,3.8-25.9
					C1095.2,489,1105.3,495,1110.5,505.9z"/>
				<path class="st9" d="M1207,505.9c-5.2,10.9-3.5,22.5,3.8,25.9s17.3-2.6,22.5-13.4c5.2-10.9,3.5-22.5-3.8-25.9
					C1222.3,489,1212.2,495,1207,505.9z"/>
				<path class="st0" d="M1184.5,537.9c0,0-11,17.8-24.5,17.8c-13.5,0-24.5-17.8-24.5-17.8H1184.5z"/>
				<path class="st14" d="M1127.6,455.9c22.7-15.9,33-13.3,50,12.9c17.1,26.2,37.5,26.6,37.5,26.6l2.7-27.1c0,0-25.4-49.2-59.5-42.7
					c-34.1,6.4-53.5,37.1-53.5,37.1s-1.7,57.5,3.1,59.5c4.8,2,5.3-18.6,8.7-22.7c3.4-4.2-3.4-23.9,1.1-33
					C1122.3,457.4,1127.6,455.9,1127.6,455.9z"/>
				<path class="st14" d="M1200.8,485.4c7.9,8.7,4.9,43.2,9.1,42.8s5.7-33,4.5-36.4C1213.3,488.5,1200.8,485.4,1200.8,485.4z"/>
			</g>
			<path class="st6" d="M1282.7,813.8h-253.5c-8.9,0-16.2-7.3-16.2-16.2c0-8.9,7.3-16.2,16.2-16.2h253.5c8.9,0,16.2,7.3,16.2,16.2
				C1298.9,806.5,1291.7,813.8,1282.7,813.8z"/>
			<path class="st6" d="M1251.2,863.6h-190.4c-8.9,0-16.2-7.3-16.2-16.2c0-8.9,7.3-16.2,16.2-16.2h190.4c8.9,0,16.2,7.3,16.2,16.2
				C1267.4,856.3,1260.1,863.6,1251.2,863.6z"/>
			<path class="st6" d="M1387.6,1042.7H924.4c-5.2,0-9.4-4.2-9.4-9.4s4.2-9.4,9.4-9.4h463.1c5.2,0,9.4,4.2,9.4,9.4
				S1392.7,1042.7,1387.6,1042.7z"/>
			<path class="st6" d="M1387.6,1086.4H924.4c-5.2,0-9.4-4.2-9.4-9.4s4.2-9.4,9.4-9.4h463.1c5.2,0,9.4,4.2,9.4,9.4
				S1392.7,1086.4,1387.6,1086.4z"/>
			<path class="st6" d="M1387.6,1130.1H924.4c-5.2,0-9.4-4.2-9.4-9.4s4.2-9.4,9.4-9.4h463.1c5.2,0,9.4,4.2,9.4,9.4
				S1392.7,1130.1,1387.6,1130.1z"/>
			<g>
				<path class="st6" d="M1322.8,703.5H989.2c-8.2,0-15-6.7-15-15V381.1c0-8.2,6.7-15,15-15h333.6c8.2,0,15,6.7,15,15v307.4
					C1337.8,696.8,1331,703.5,1322.8,703.5z M989.2,376.2c-2.7,0-5,2.2-5,5v307.4c0,2.7,2.2,5,5,5h333.6c2.7,0,5-2.2,5-5V381.1
					c0-2.7-2.2-5-5-5H989.2z"/>
			</g>
			<g>
				<polygon class="st6" points="997.2,905.9 1006.8,925.4 1028.4,928.6 1012.8,943.8 1016.5,965.3 997.2,955.2 977.9,965.3 
					981.5,943.8 965.9,928.6 987.5,925.4 				"/>
				<polygon class="st6" points="1076.3,905.9 1085.9,925.4 1107.5,928.6 1091.9,943.8 1095.6,965.3 1076.3,955.2 1057,965.3 
					1060.6,943.8 1045,928.6 1066.6,925.4 				"/>
				<polygon class="st6" points="1155.4,905.9 1165,925.4 1186.6,928.6 1171,943.8 1174.7,965.3 1155.4,955.2 1136.1,965.3 
					1139.7,943.8 1124.1,928.6 1145.7,925.4 				"/>
				<polygon class="st6" points="1234.5,905.9 1244.1,925.4 1265.7,928.6 1250.1,943.8 1253.8,965.3 1234.5,955.2 1215.2,965.3 
					1218.9,943.8 1203.2,928.6 1224.8,925.4 				"/>
				<polygon class="st6" points="1314.8,905.9 1324.5,925.4 1346.1,928.6 1330.5,943.8 1334.2,965.3 1314.8,955.2 1295.5,965.3 
					1299.2,943.8 1283.6,928.6 1305.2,925.4 				"/>
			</g>
		</g>
	</g>
	<path class="st17" d="M2399.9,1249.2h-762c-4.6,0-8.3-3.7-8.3-8.3v-12.4c0-4.6,3.7-8.3,8.3-8.3h762c4.6,0,8.3,3.7,8.3,8.3v12.4
		C2408.2,1245.5,2404.5,1249.2,2399.9,1249.2z"/>
	<g>
		<path class="st9" d="M2596.1,831.4c10.3,36.4-14.9,73.9-42.7,81.8c-27.8,7.9-47.6-16.9-57.9-53.3c-10.3-36.4,3.8-72.3,31.6-80.2
			C2554.9,771.9,2585.8,795,2596.1,831.4z"/>
		<path class="st9" d="M2440.4,1536.7c0,0,71.2,110.6,80.8,115.4s33.7,6,24.6,24c-9,18-12.6,88.9-21,92.5c-8.4,3.6-80.5,12-69.7,0
			c10.8-12,17.5-6,22.9-27.6c5.5-21.6,13.1-62.5,2.9-70.9s-72.7-84.1-72.7-84.1L2440.4,1536.7z"/>
		<path class="st9" d="M2082.1,1584.2c0,0-86.5,142.6-102.6,155.4c-16,12.8-68.9,32.1-25.6,35.3c43.3,3.2,64.1-14.4,91.3-22.4
			s60.9-12.8,48.1-33.7c-12.8-20.8-7.5-66.3,20.1-95.2C2141.1,1594.8,2082.1,1584.2,2082.1,1584.2z"/>
		<path class="st18" d="M2523.7,1253.5c0,0-214.2-5.6-299.2,64.1c-49.7,75.3-169.9,297.5-179.2,322c6.4,6.4,42.5,18,58.5,16.4
			c47.3-56.4,109.8-105.1,134.6-149.3c30.6-54.5,40.1-81.7,89.7-86.5c49.7-4.8,161.9-20.8,195.5-20.8S2523.7,1253.5,2523.7,1253.5z"
			/>
		<polygon class="st17" points="2710.5,1775.3 2699.3,1775.3 2618.7,1439.3 2643.4,1439.3 		"/>
		<polygon class="st17" points="2374.1,1775.3 2385.3,1775.3 2477.7,1427.4 2453,1427.4 		"/>
		<path class="st19" d="M2645.7,1238.8l-124.5,21.5c0,0-165.5,1.5-241.2,15.6c-68.8,12.8-79,91,0,198.7
			c44.9,61.2,82.8,110,160.4,165c19.7-14.5,27.3-20,32.7-54.8c-5.6-7.7-20.1-55.9-24.7-65.3c-42.9-89.7-100.2-122.3-101-131.1
			c9.6-15.6,254.7,81.4,303.4,24.3C2697.4,1358.2,2645.7,1238.8,2645.7,1238.8z"/>
		<path class="st4" d="M2650.9,956.8c-32.8-4.6-66.2,1.6-97.5,24.3c-27.3,27.8-58.2,73.7-56.3,149.4c2.4,96.1-14.9,102.3,3.1,128.8
			c75.2,31,203.8,164.5,173.5,21.4c-21.9-103.6,48.1-180.7-8.4-295.6C2660.8,975.7,2655.1,966.7,2650.9,956.8z"/>
		<path class="st12" d="M2497.1,1166.7c-1.5,50.1-8.5,64.9-3.1,80.6c30.7,3.1,86.7,15.4,100.7,35c16,22.4,32.1,25.6,24.6,9.1
			c-7.5-16.6-27.2-40.1,3.2-120.7c30.4-80.7,44.9-135.1,15-191.2L2497.1,1166.7z"/>
		<path class="st9" d="M2650.9,956.8c-20.2-47.8-25.2-101.5-25.2-101.5l-52.9,15.6c0,0,30,67.3,1.2,91.3
			c-6.1,5.1-13.2,11.3-20.6,18.8C2584.7,958.5,2618.1,952.2,2650.9,956.8z"/>
		<path class="st10" d="M2627.3,868c-3.1-2.8-7.1-6.3-11.2-9.9l-43.1,12.7c0,0.1-0.1,0.2-0.1,0.2c1,2.4,12,28,13.5,52.7
			c12.9-7.8,26.9-20.5,43-42.7C2628.6,876.1,2627.9,871.7,2627.3,868z"/>
		<path class="st9" d="M2613.7,971.9c-54.5,19-48.4,76.4-98.5,161c-25.9,43.8-50,43.1-50,43.1s-60.8,0.5-134.4-8.5
			c-46.1-5.6-49,8.1-17,19.5c64.6,23.1,131.7,48,185.8,42c54.1-6,146.6-144,151.4-179.9C2657.5,999.5,2641.1,962.3,2613.7,971.9z"/>
		<g>
			<path class="st17" d="M2585.7,1453.3c-3.4,0-6.9,0-10.4-0.1c-44.4-1.1-74.6-7.2-98.9-12.2c-28.3-5.8-44-8.9-62.1-0.3
				c-7,3.3-15.3,0.4-18.7-6.6s-0.4-15.3,6.6-18.7c26.6-12.7,48.9-8.2,79.8-1.9c23.2,4.7,52.1,10.6,94,11.6
				c46.9,1.2,75.5-5.8,90-21.9c12.9-14.3,16.7-38.4,11.9-75.8c-1.6-12.8-3.3-23.4-4.7-32.8c-4.1-26.5-6.8-44-3.4-71
				c3.1-25.1,11.4-58.5,30.7-123.4c2.2-7.4,10-11.6,17.4-9.4c7.4,2.2,11.6,10,9.4,17.4c-35.9,120.8-34.1,132.6-26.4,182.1
				c1.5,9.5,3.1,20.4,4.8,33.5c5.9,46.1-0.1,77.2-18.9,98.1C2667.4,1443.5,2636,1453.3,2585.7,1453.3z"/>
		</g>
		<path class="st12" d="M2088,1704.4c-57.4,28.1-88.3,44.2-106.7,42.6c-4.3-0.4-7.9-0.8-11-1.3c-20.5,12.1-53.2,26.4-16.4,29.1
			c43.3,3.2,64.1-14.4,91.3-22.4s60.9-12.8,48.1-33.7C2090.8,1714.8,2089,1709.9,2088,1704.4z"/>
		<path class="st12" d="M2527.4,1654.4c-1.4,45.5-7.7,90.5-35.5,99c-7.4,2.3-14.1,2.6-20,1.8c-4.4,5.4-9.7,5.5-16.9,13.4
			c-10.8,12,61.3,3.6,69.7,0s12-74.5,21-92.5C2553.2,1661.3,2538.3,1657.9,2527.4,1654.4z"/>
		<g>
			<path class="st19" d="M2306.3,1224.2h-182.4c-5.4,0-10.4-3.2-12.7-8.1l-73.7-158.7c-3.3-7-0.2-15.3,6.8-18.6
				c7-3.3,15.3-0.2,18.6,6.8l70,150.5h173.5c7.7,0,14,6.3,14,14S2314,1224.2,2306.3,1224.2z"/>
		</g>
		<path class="st9" d="M2344.4,1169.1c-36.9-0.5-73.4-22.5-91.6-19.3c-18.2,3.2-77.5,44.3-70,45.9s54.5-22.8,56.1-23.1
			c1.6-0.4,11.8,16.9,36.9,23.2c25.1,6.3,0.2-18.8,78,4.7C2404.4,1215.8,2344.4,1169.1,2344.4,1169.1z"/>
		<path class="st20" d="M2645.5,913.2l5.4,43.6c0,0-47.7,2.8-71.4,16.2s-58.8,51.9-58.8,51.9l28.6-49.3l4.1-31.5L2645.5,913.2z"/>
		<path class="st20" d="M2625.2,966.6c-35.4-6.6-51.8,25.1-74.8,76.9c-23,51.8-62.2,114.7-70,122.9c-7.8,8.1-131.4,0-131.4,0
			s-3.7,35.8,0,40.1s25.1,3.7,25.1,3.7s8.5,6.8,16.6,12.2c8,5.4,75.9,15.6,107.4,13.9s60.4-4.3,64.6-9.1
			c4.3-4.8,90.3-137.3,95.6-184.8C2663.6,994.9,2643.3,970,2625.2,966.6z"/>
		<path class="st21" d="M2520.7,748.7c-67,3.2-56.5,104-56.5,104s17.4,5.4,53.9-0.6c-2.8-10.8-1.6-38.5-1.6-38.5s4.2,22.4,9.6,36.1
			c7.7,3.5,16.4,0.4,31.2-3.2c7.6,32,29.1,45.6,43.8,50.2c16.3,5.1,33.5,11.2,52.7,1.6c19.2-9.6,8.7-107.9-1.6-127.7
			c-15.3-29.7-40.8-56.2-84.9-42.2C2545.4,735.4,2520.7,748.7,2520.7,748.7z"/>
		<path class="st21" d="M2637.2,868.4l27.4,40c0,0-30.4,75.9,57.9,110.2c69.2,26.9,61,74.3,29.8,122s18.7,89.3,18.7,89.3
			s7.6-52.8,74.8-62.8c91.6-13.6,117.6-136.6,49.1-198.1c-56.6-50.9-73.8-8.7-112.2-54.4c-38.3-45.7-110.7-14.8-110.7-14.8
			l-26.5-38.7L2637.2,868.4z"/>
		<g>
			<path class="st21" d="M2926.4,1093c-0.4,0-0.8-0.1-1.2-0.3c-1.2-0.6-1.6-2.1-1-3.3c23-42.1,4.2-93.1-5.2-106.9
				c-1-1.5-2-2.9-3-4.5c-9.3-14.5-20.8-32.5-82.5-43.6c-14.9-2.7-26.9-11.5-39.6-20.9c-26.3-19.3-56.1-41.2-120.9-11.4
				c-1.2,0.6-2.7,0-3.2-1.2c-0.6-1.2,0-2.7,1.2-3.2c67.4-31,98.4-8.2,125.8,11.9c12.3,9,23.9,17.5,37.6,20
				c63.8,11.5,76,30.5,85.8,45.8c1,1.5,1.9,3,2.9,4.4c9.9,14.5,29.6,67.9,5.5,112C2928.1,1092.5,2927.3,1093,2926.4,1093z"/>
		</g>
		<g>
			<path class="st21" d="M2622.6,909.4c-4.4,0-9.1-0.4-14.2-1.1c-23.4-3.5-54.9-16.8-57.4-91.6c0-1.3,1-2.5,2.4-2.5
				c1.4,0,2.5,1,2.5,2.4c1,30.8,7.1,53.6,18.2,67.8c8.4,10.8,19.5,16.8,35,19.2c21.7,3.2,36.1-0.8,42.7-11.9
				c0.7-1.2,2.2-1.5,3.3-0.8c1.2,0.7,1.5,2.2,0.8,3.3C2649.9,904.2,2638.7,909.4,2622.6,909.4z"/>
		</g>
	</g>
	<polygon class="st17" points="1711.3,1775.3 1729.3,1775.3 1799.4,1240 1759.8,1240 	"/>
	<polygon class="st17" points="2322.2,1775.3 2304.2,1775.3 2234.2,1240 2273.8,1240 	"/>
	<g>
		<path class="st22" d="M3028.1,1323.4c31.1,28.4,17.6,56.9-5.4,109.7s-27.1,247.8-27.1,247.8l19-2.7c0,0-2.7-200.4,23-254.6
			c25.7-54.2,36.6-81.2,59.6-63.6S3028.1,1323.4,3028.1,1323.4z"/>
		<path class="st23" d="M3011,1286.6c3.8-16.9,26.2-35.1,56.3-50.6c-4.5,24.9-18.8,65.5-4,73.8c20,11.2,1.9-45.5,9.7-76.7
			c28.2-13.8,62.1-25,93.4-30.6c0,0.1-0.1,0.2-0.1,0.3c-17.6,44.7-40.6,62.3-31.1,69.1c7.1,5.1,30.4-46.5,61-73
			c23-1.2,42.5,1.9,54,11c17.8,14.1,29.8,26.6,11.9,69.5c-10.2,7.3-23.5,12.6-38.9,14.1c-40.6,4.1-59.6,5.4-31.1,19
			c13.9,6.6,37.3-0.4,56.2-4.6c-6.1,11.3-13.7,24.1-22.9,38.7c-5.8,9.2-12.2,17.3-19,24.2c-13.1,2.5-24.5,2.5-30.6-0.1
			c-19-8.1-67.7-33.9-79.9-23c-11.9,10.6,90.3,17.3,83.2,44.3c-49.5,28.5-106.2,15-116.3-11.2
			C3049.3,1345.6,2999.6,1337.3,3011,1286.6z"/>
		<path class="st22" d="M3113.4,1479.2c-54.2-40.6-109.7-2.7-138.1,40.6c-28.4,43.3-8.1,140.8-8.1,140.8s10.8,0,10.8-4.1
			c0-4.1-29.8-115.1,40.6-165.2c44.1-31.3,75.8-16.2,79.9-1.4s-17.6,42-17.6,42L3113.4,1479.2z"/>
		<path class="st23" d="M2988.9,1395.6c54.2,0,71.8,84,56.9,132.7c-14.9,48.7-35.2,139.5-35.2,139.5l-13.5-13.5
			c0,0,51.5-127.3,39.3-184.2c-12.2-56.9-42-66.4-47.4-66.4C2983.5,1403.8,2988.9,1395.6,2988.9,1395.6z"/>
		<path class="st22" d="M3034.3,1528.7c3.8-5,8.5-9.2,14.3-12c-0.8,4-1.7,7.9-2.8,11.6c-6.8,22.2-14.7,53.1-21.3,80.2
			c-0.6-3.5-1.5-8.8-3-17.1c-0.3-1.9-0.6-4.1-0.8-6.3C3026,1567.2,3031,1547.5,3034.3,1528.7z"/>
		<path class="st23" d="M3049.1,1529.1c102.9-43.3,48.7-102.8,139.4-63.5c6.4,2.8,14.2,9.7,22,19.4c-8.1,2.3-17.9,3.9-28.7,2.3
			c-27.1-4.1-17.6,17.6,27.1,23c8.4,1,15.3,2.4,20.9,4.4c21.3,40.9,30.9,94.7-14.2,113.4c-8.9,3.7-19.8,5.8-32.1,6.6
			c-13.9-11,3.4-75-18-66.2c-20.6,8.5,6.4,54.8,2.7,66.5c-20.3-0.4-42.8-3.7-64.3-9c-8.5-4.8-15-11.2-17-19.6
			c-6.8-28.4,37.9-46,39.3-70.4c1.2-22.4-16.4,49.3-63.1,59.8C3020.9,1576.2,3001,1549.4,3049.1,1529.1z"/>
		<path class="st23" d="M2975.8,1452.5c10.8-23-17.6-28.4-16.2-10.8c1.2,15.6,1.3,53.5-14.7,63.8c-27.6-3-65.1-14.1-93.5-31.1
			c-0.4-2.3,0-4.6,1.2-7.1c12.2-24.4,90.7-44.7,66.4-52.8c-19.4-6.5-53.4,31.7-80.8,51c-16.5-12.5-27.5-27.4-27.5-44
			c0-22.5,27.3-48,62.7-60.1c15.9,1.6,30.7,10.3,53.8,23.4c34.1,19.3,26.2-11.9-6-30.5c27.8,1.4,55.6,13.3,76,41.7
			c0,0-1.9,12.1,10.9,30.9c35.1,51.2-5.4,81.2-53.8,79.2C2956.9,1492.7,2968.3,1468.4,2975.8,1452.5z"/>
		<path class="st22" d="M3110.2,1476.9c26.5,20.5,55.9,44.4,92,60.6c36.1,16.2,28.9,69.2,28.9,69.2s5.4-45.7-24.7-61.4
			c-30.1-15.6-50-34.3-72.8-37.9s-35.5-7.2-35.5-7.2s7.2-14.4,3-19.9S3110.2,1476.9,3110.2,1476.9z"/>
		<path class="st22" d="M3240.7,1236.6c-96.9,25.9-167.9,87.9-181.2,102.9c-13.2,15-13.2,19.3-13.2,19.3l10.2,19.3l4.8-2.4
			c0,0-7.8-16.3,12.6-37.3c35.3-36.3,78.2-65,107.7-77.6C3211.2,1248,3240.7,1236.6,3240.7,1236.6z"/>
		<path class="st19" d="M2973.2,1772.9h37c26.3,0,47.7-21.3,47.7-47.7v-85.1h-132.4v85.1C2925.6,1751.6,2946.9,1772.9,2973.2,1772.9
			z"/>
		<rect x="2925.6" y="1655.4" class="st0" width="132.4" height="9.3"/>
		<rect x="2925.6" y="1672.4" class="st0" width="132.4" height="5.5"/>
	</g>
	<g>
		<path class="st2" d="M558.9,1657.1h31.6c6.7,0,12.1-5.4,12.1-12.1v-26c0-6.7-5.4-12.1-12.1-12.1h-31.6c-6.7,0-12.1,5.4-12.1,12.1
			v26C546.8,1651.7,552.2,1657.1,558.9,1657.1z"/>
		<path class="st2" d="M457.5,1657.1h31.6c6.7,0,12.1-5.4,12.1-12.1v-26c0-6.7-5.4-12.1-12.1-12.1h-31.6c-6.7,0-12.1,5.4-12.1,12.1
			v26C445.5,1651.7,450.9,1657.1,457.5,1657.1z"/>
		<path class="st2" d="M356.2,1657.1h31.6c6.7,0,12.1-5.4,12.1-12.1v-26c0-6.7-5.4-12.1-12.1-12.1h-31.6c-6.7,0-12.1,5.4-12.1,12.1
			v26C344.1,1651.7,349.6,1657.1,356.2,1657.1z"/>
	</g>
	<g>
		<path class="st2" d="M3239.9,722.4v-31.6c0-6.7-5.4-12.1-12.1-12.1h-26c-6.7,0-12.1,5.4-12.1,12.1v31.6c0,6.7,5.4,12.1,12.1,12.1
			h26C3234.5,734.5,3239.9,729.1,3239.9,722.4z"/>
		<path class="st2" d="M3239.9,823.7v-31.6c0-6.7-5.4-12.1-12.1-12.1h-26c-6.7,0-12.1,5.4-12.1,12.1v31.6c0,6.7,5.4,12.1,12.1,12.1
			h26C3234.5,835.8,3239.9,830.4,3239.9,823.7z"/>
		<path class="st2" d="M3239.9,925.1v-31.6c0-6.7-5.4-12.1-12.1-12.1h-26c-6.7,0-12.1,5.4-12.1,12.1v31.6c0,6.7,5.4,12.1,12.1,12.1
			h26C3234.5,937.2,3239.9,931.7,3239.9,925.1z"/>
	</g>
</g>
</svg>
