<?xml version="1.0" encoding="utf-8"?>
<!-- Generator: Adobe Illustrator 26.3.1, SVG Export Plug-In . SVG Version: 6.00 Build 0)  -->
<svg version="1.1" xmlns="http://www.w3.org/2000/svg" xmlns:xlink="http://www.w3.org/1999/xlink" x="0px" y="0px"
	 viewBox="0 0 950 500" style="enable-background:new 0 0 950 500;" xml:space="preserve">
<style type="text/css">
	.st0{fill:#2D2D48;}
	.st1{fill:#698BEC;}
	.st2{fill:#F5F0E8;}
	.st3{opacity:0.61;fill:#F5F0E8;}
	.st4{fill:#FF9A7B;}
	.st5{opacity:0.81;fill:#2D2D48;}
	.st6{fill:#FFFFFF;}
	.st7{fill:#F4B6B0;}
	.st8{fill:#FFF9F3;}
	.st9{fill:#FBB03B;}
	.st10{fill:#0071BC;}
	.st11{fill:#FFA874;}
</style>
<g id="BACKGROUND">
</g>
<g id="OBJECTS">
	<g>
		<path class="st0" d="M545.2,255.5c-0.4,6-3.4,9-9,9h-9.1c-2.5,0-4.6-0.9-6.4-2.7c-1.8-1.8-2.7-3.9-2.7-6.4v-22.6
			c0-2.4,0.9-4.5,2.6-6.3c1.7-1.8,3.9-2.7,6.4-2.7h9.1c5.7,0,8.7,3,9,9h-4.5c-0.4-3-1.9-4.5-4.5-4.5h-4.5c-1.2,0-2.3,0.4-3.2,1.3
			c-0.9,0.9-1.3,1.9-1.3,3.2v22.6c0,1.2,0.4,2.3,1.3,3.2c0.9,0.9,2,1.3,3.2,1.3h4.5c2.7,0,4.2-1.5,4.5-4.5H545.2z"/>
		<path class="st0" d="M554.2,264.5v-31.6c0-2.5,0.9-4.6,2.7-6.4c1.8-1.8,3.9-2.7,6.4-2.7h9.1c2.5,0,4.6,0.9,6.4,2.7
			c1.8,1.8,2.7,3.9,2.7,6.4v31.6h-9v-18.1h-9.1v18.1H554.2z M563.3,241.9h9.1v-9.1c0-1.2-0.4-2.3-1.3-3.2c-0.9-0.9-2-1.3-3.2-1.3
			c-1.2,0-2.3,0.4-3.2,1.3c-0.9,0.9-1.3,1.9-1.3,3.2V241.9z"/>
		<path class="st0" d="M590.4,264.5v-40.7h18.1c2.5,0,4.6,0.9,6.4,2.7c1.8,1.8,2.7,3.9,2.7,6.4v22.6c0,2.4-0.9,4.6-2.7,6.3
			c-1.8,1.8-3.9,2.7-6.4,2.7H590.4z M599.4,260h4.5c1.3,0,2.3-0.4,3.2-1.3c0.9-0.9,1.3-1.9,1.3-3.2v-22.6c0-1.2-0.4-2.3-1.3-3.2
			c-0.9-0.9-2-1.3-3.2-1.3h-4.5V260z"/>
		<path class="st0" d="M626.5,264.5v-31.6c0-2.5,0.9-4.6,2.7-6.4c1.8-1.8,3.9-2.7,6.4-2.7h9.1c2.5,0,4.6,0.9,6.4,2.7
			c1.8,1.8,2.7,3.9,2.7,6.4v31.6h-9v-18.1h-9.1v18.1H626.5z M635.5,241.9h9.1v-9.1c0-1.2-0.4-2.3-1.3-3.2c-0.9-0.9-2-1.3-3.2-1.3
			c-1.2,0-2.3,0.4-3.2,1.3c-0.9,0.9-1.3,1.9-1.3,3.2V241.9z"/>
		<path class="st0" d="M685.2,232.8h-4.5c-0.4-3-1.8-4.5-4.3-4.5c-1.6,0-2.8,0.4-3.6,1.1c-0.8,0.8-1.2,1.9-1.2,3.4
			c0,1.1,0.4,2.2,1.3,3.2l9.6,10.8c1.8,2,2.6,4.1,2.6,6.4v2.3c0,2.4-0.9,4.6-2.6,6.3c-1.8,1.8-3.9,2.7-6.4,2.7h-4.5
			c-3,0-5.2-0.8-6.8-2.3s-2.3-3.8-2.3-6.8h4.5c0,0.3,0,0.6,0,0.7c0,1.2,0.5,2.2,1.4,2.8c0.9,0.6,2,1,3.1,1c1.6,0,2.8-0.4,3.5-1.2
			c0.7-0.8,1.1-1.9,1.1-3.4c0-1.1-0.4-2.2-1.3-3.2l-9.6-10.7c-1.8-2-2.6-4.1-2.6-6.4v-2.3c0-2.5,0.9-4.6,2.6-6.4
			c1.8-1.8,3.9-2.7,6.4-2.7h4.5C681.8,223.8,684.8,226.8,685.2,232.8z"/>
		<path class="st0" d="M698.7,264.5v-36.1h-9v-4.5h27.1v4.5h-9v36.1H698.7z"/>
		<path class="st0" d="M721.4,264.5v-40.7h18.1c2.5,0,4.6,0.9,6.4,2.7c1.8,1.8,2.7,3.9,2.7,6.4v2.5c0,2-0.7,4-2.1,5.8
			s-3.7,2.8-6.9,2.8h4.5c1.2,0,2.3,0.4,3.2,1.3c0.9,0.9,1.3,2,1.3,3.2v16h-9v-13.6c0-1.2-0.4-2.3-1.3-3.2s-2-1.3-3.2-1.3h-4.5v18.1
			H721.4z M730.4,241.9h4.5c1.2,0,2.3-0.4,3.2-1.3s1.3-2,1.3-3.2v-4.5c0-1.2-0.4-2.3-1.3-3.2c-0.9-0.9-2-1.3-3.2-1.3h-4.5V241.9z"/>
		<path class="st0" d="M757.5,264.5v-40.7h22.6v4.5h-13.6v13.6h9.1v4.5h-9.1V260h13.6v4.5H757.5z"/>
		<path class="st0" d="M789.1,250.9v-4.5h22.6v4.5H789.1z"/>
		<path class="st0" d="M843.4,232.8h-4.5c-0.4-3-1.8-4.5-4.3-4.5c-1.6,0-2.8,0.4-3.6,1.1c-0.8,0.8-1.2,1.9-1.2,3.4
			c0,1.1,0.4,2.2,1.3,3.2l9.6,10.8c1.8,2,2.6,4.1,2.6,6.4v2.3c0,2.4-0.9,4.6-2.6,6.3c-1.8,1.8-3.9,2.7-6.4,2.7h-4.5
			c-3,0-5.2-0.8-6.8-2.3s-2.3-3.8-2.3-6.8h4.5c0,0.3,0,0.6,0,0.7c0,1.2,0.5,2.2,1.4,2.8c0.9,0.6,2,1,3.1,1c1.6,0,2.8-0.4,3.5-1.2
			c0.7-0.8,1.1-1.9,1.1-3.4c0-1.1-0.4-2.2-1.3-3.2l-9.6-10.7c-1.8-2-2.6-4.1-2.6-6.4v-2.3c0-2.5,0.9-4.6,2.6-6.4
			c1.8-1.8,3.9-2.7,6.4-2.7h4.5C840,223.8,843,226.8,843.4,232.8z"/>
		<path class="st0" d="M852.4,264.5v-40.7H875v4.5h-13.6v13.6h9.1v4.5h-9.1V260H875v4.5H852.4z"/>
	</g>
	<g>
		<g>
			<path class="st1" d="M521.8,284.3h-6.9v-2.4h16.7v2.4h-6.9v19h-2.9V284.3z"/>
			<path class="st1" d="M561.1,292.5c0,5.9-3.3,11.1-10,11.1c-6.3,0-9.8-4.9-9.8-11c0-6.1,3.6-11,10.1-11
				C557.3,281.6,561.1,286.1,561.1,292.5z M544.2,292.5c0,4.6,2.3,8.7,7,8.7c5,0,7-4.1,7-8.7c0-4.6-2.2-8.5-7-8.5
				C546.3,284,544.2,287.9,544.2,292.5z"/>
			<path class="st1" d="M573.9,281.9h7.6c6,0,10.1,4.1,10.1,10.5c0,6.3-4,10.9-10.2,10.9h-7.5V281.9z M576.7,300.9h4.5
				c5,0,7.4-3.6,7.4-8.5c0-4.2-2.2-8.1-7.4-8.1h-4.5V300.9z"/>
			<path class="st1" d="M607.1,296.9l-2.3,6.4H602l7.6-21.4h3.5l8,21.4h-3l-2.4-6.4H607.1z M614.9,294.4c-2.1-5.6-3.2-8.6-3.6-10.3
				h0c-0.5,1.8-1.8,5.5-3.4,10.3H614.9z"/>
			<path class="st1" d="M634.3,297.3c0.6,2.6,2.3,4,5.5,4c3.3,0,4.6-1.6,4.6-3.6c0-2.2-1-3.4-5.3-4.4c-5-1.2-6.8-3-6.8-6
				c0-3.2,2.3-5.8,7.1-5.8c5.1,0,7.2,3,7.5,5.8H644c-0.4-1.9-1.6-3.4-4.7-3.4c-2.6,0-4.1,1.2-4.1,3.2c0,2,1.2,2.8,5,3.7
				c6.1,1.5,7.2,3.8,7.2,6.6c0,3.4-2.6,6.2-7.8,6.2c-5.4,0-7.7-3-8.2-6.3H634.3z"/>
			<path class="st1" d="M679,296.9l-2.3,6.4h-2.8l7.6-21.4h3.5l8,21.4h-3l-2.4-6.4H679z M686.9,294.4c-2.1-5.6-3.2-8.6-3.6-10.3h0
				c-0.5,1.8-1.8,5.5-3.4,10.3H686.9z"/>
			<path class="st1" d="M706.3,297.3c0.6,2.6,2.3,4,5.5,4c3.3,0,4.6-1.6,4.6-3.6c0-2.2-1-3.4-5.3-4.4c-5-1.2-6.8-3-6.8-6
				c0-3.2,2.3-5.8,7.1-5.8c5.1,0,7.2,3,7.5,5.8H716c-0.4-1.9-1.6-3.4-4.7-3.4c-2.6,0-4.1,1.2-4.1,3.2c0,2,1.2,2.8,5,3.7
				c6.1,1.5,7.2,3.8,7.2,6.6c0,3.4-2.6,6.2-7.8,6.2c-5.4,0-7.7-3-8.2-6.3H706.3z"/>
			<path class="st1" d="M751,296.9l-2.3,6.4h-2.8l7.6-21.4h3.5l8,21.4h-3l-2.4-6.4H751z M758.8,294.4c-2.1-5.6-3.2-8.6-3.6-10.3h0
				c-0.5,1.8-1.8,5.5-3.4,10.3H758.8z M761.8,275.7l-5.3,4.2h-2.8l4.5-4.2H761.8z"/>
			<path class="st1" d="M779.4,293.9v9.4h-2.8v-21.4h8.4c4.4,0,6.7,2.4,6.7,5.7c0,2.8-1.6,4.5-3.7,5c1.8,0.5,3.3,1.8,3.3,5.5v0.9
				c0,1.5-0.1,3.4,0.3,4.2h-2.8c-0.4-0.9-0.4-2.6-0.4-4.6v-0.4c0-3-0.9-4.4-4.7-4.4H779.4z M779.4,291.5h4.6c3.3,0,4.7-1.2,4.7-3.6
				c0-2.3-1.5-3.6-4.4-3.6h-5V291.5z"/>
			<path class="st1" d="M818.3,293.3h-10.7v7.6h11.7l-0.4,2.4h-14.1v-21.4h13.9v2.4h-11.2v6.6h10.7V293.3z"/>
			<path class="st1" d="M835.1,296.9l-2.3,6.4H830l7.6-21.4h3.5l8,21.4h-3l-2.4-6.4H835.1z M842.9,294.4c-2.1-5.6-3.2-8.6-3.6-10.3
				h0c-0.5,1.8-1.8,5.5-3.4,10.3H842.9z"/>
			<path class="st1" d="M862.3,297.3c0.6,2.6,2.3,4,5.5,4c3.3,0,4.6-1.6,4.6-3.6c0-2.2-1-3.4-5.3-4.4c-5-1.2-6.8-3-6.8-6
				c0-3.2,2.3-5.8,7.1-5.8c5.1,0,7.2,3,7.5,5.8H872c-0.4-1.9-1.6-3.4-4.7-3.4c-2.6,0-4.1,1.2-4.1,3.2c0,2,1.2,2.8,5,3.7
				c6.1,1.5,7.2,3.8,7.2,6.6c0,3.4-2.6,6.2-7.8,6.2c-5.4,0-7.7-3-8.2-6.3H862.3z"/>
		</g>
	</g>
	<g>
		<path class="st2" d="M440.5,16.1l18.6,52.3c0.4,1.1,1.6,1.6,2.7,1.1L512,45.7c1.7-0.8,3.4,1,2.6,2.6l-23.8,50.1
			c-0.5,1.1,0,2.3,1.1,2.7l52.3,18.6c1.7,0.6,1.7,3.1,0,3.7l-52.3,18.6c-1.1,0.4-1.6,1.6-1.1,2.7l23.8,50.1c0.8,1.7-1,3.4-2.6,2.6
			l-50.1-23.8c-1.1-0.5-2.3,0-2.7,1.1l-18.6,52.3c-0.6,1.7-3.1,1.7-3.7,0l-18.6-52.3c-0.4-1.1-1.6-1.6-2.7-1.1l-50.1,23.8
			c-1.7,0.8-3.4-0.9-2.6-2.6l23.8-50.1c0.5-1.1,0-2.3-1.1-2.7l-52.3-18.6c-1.7-0.6-1.7-3.1,0-3.7l52.3-18.6c1.1-0.4,1.6-1.6,1.1-2.7
			l-23.8-50.1c-0.8-1.7,0.9-3.4,2.6-2.6l50.1,23.8c1.1,0.5,2.3,0,2.7-1.1l18.6-52.3C437.4,14.3,439.9,14.3,440.5,16.1z"/>
		<path class="st3" d="M134.3,137.7L153,190c0.4,1.1,1.6,1.6,2.7,1.1l50.1-23.8c1.7-0.8,3.4,1,2.6,2.6l-23.8,50.1
			c-0.5,1.1,0,2.3,1.1,2.7l52.3,18.6c1.7,0.6,1.7,3.1,0,3.7l-52.3,18.6c-1.1,0.4-1.6,1.6-1.1,2.7l23.8,50.1c0.8,1.7-1,3.4-2.6,2.6
			l-50.1-23.8c-1.1-0.5-2.3,0-2.7,1.1l-18.6,52.3c-0.6,1.7-3.1,1.7-3.7,0L112,296.4c-0.4-1.1-1.6-1.6-2.7-1.1l-50.1,23.8
			c-1.7,0.8-3.4-1-2.6-2.6l23.8-50.1c0.5-1.1,0-2.3-1.1-2.7L27,245.1c-1.7-0.6-1.7-3.1,0-3.7l52.3-18.6c1.1-0.4,1.6-1.6,1.1-2.7
			l-23.8-50.1c-0.8-1.7,1-3.4,2.6-2.6l50.1,23.8c1.1,0.5,2.3,0,2.7-1.1l18.6-52.3C131.3,136,133.7,136,134.3,137.7z"/>
		<path class="st3" d="M428.5,280.2l17.3,48.5c0.4,1,1.5,1.5,2.5,1l46.5-22.1c1.6-0.7,3.2,0.9,2.4,2.4l-22.1,46.5
			c-0.5,1,0,2.1,1,2.5l48.5,17.3c1.6,0.6,1.6,2.9,0,3.4l-48.5,17.3c-1,0.4-1.5,1.5-1,2.5l22.1,46.5c0.7,1.6-0.9,3.2-2.4,2.4
			l-46.5-22.1c-1-0.5-2.1,0-2.5,1L428.5,476c-0.6,1.6-2.9,1.6-3.4,0l-17.3-48.5c-0.4-1-1.5-1.5-2.5-1l-46.5,22.1
			c-1.6,0.7-3.2-0.9-2.4-2.4l22.1-46.5c0.5-1,0-2.1-1-2.5l-48.5-17.3c-1.6-0.6-1.6-2.9,0-3.4l48.5-17.3c1-0.4,1.5-1.5,1-2.5
			l-22.1-46.5c-0.7-1.6,0.9-3.2,2.4-2.4l46.5,22.1c1,0.5,2.1,0,2.5-1l17.3-48.5C425.6,278.6,427.9,278.6,428.5,280.2z"/>
	</g>
	<g>
		<g>
			<g>
				<path class="st0" d="M327.6,125.6l-1.6-1.1c-5.6-3.9-10.4-7.8-14.5-12l0.5-6.8c2.4-30.8-20.6-57.6-51.3-60h0
					c-26.6-2.1-50.3,14.8-57.8,39.4c-7.4,7.1-12.7,16.3-12.2,25.9c0.3,7-6.4,12.8-11.2,18.4c-1.4,1.6-2.9,3.4-4.4,5.4
					c-6.9,7.6-11.2,17-11.6,27.4c-0.6,15.3,7.2,29.2,19.9,38.6c15.5,11.5,30.7,23.5,43.5,37.2c10.7,11.5,27.3,18.8,46.1,18.7
					c27.1-0.2,50.4-17,55.1-39.4c1.3-6,1.1-11.9-0.2-17.5c-0.7-3,0.4-6,2.9-8.2c0.7-0.6,1.3-1.2,2-1.9l4.1-4.2
					C351.1,170.8,349.7,141.1,327.6,125.6z"/>
				<g>
					<g>
						<rect x="219.1" y="162.3" class="st4" width="61" height="65.4"/>
						<path class="st0" d="M280.1,228.4h-61c-0.4,0-0.8-0.3-0.8-0.8v-65.4c0-0.4,0.3-0.8,0.8-0.8h61c0.4,0,0.8,0.3,0.8,0.8v65.4
							C280.9,228.1,280.5,228.4,280.1,228.4z M219.8,226.9h59.5v-63.9h-59.5V226.9z"/>
					</g>
				</g>
				<path class="st5" d="M249.7,183.3c-1.5-0.1-3-0.3-4.5-0.6c9,5.4,24.1,13.7,35,14.8v-24.1C272,180.3,261.2,184.2,249.7,183.3z"/>
				<g>
					<g>
						<path class="st4" d="M297.6,116.7l-0.6,0l-2.2,28.1c-0.1,0.8-0.1,1.6-0.3,2.4l0.7,0.1c8.4,0.7,15.7-5.6,16.4-14v0
							C312.2,124.7,306,117.4,297.6,116.7z"/>
						<path class="st0" d="M296.4,147.9c-0.4,0-0.8,0-1.3,0l-0.7-0.1c-0.2,0-0.4-0.1-0.5-0.3c-0.1-0.2-0.2-0.4-0.2-0.6
							c0.1-0.8,0.2-1.5,0.2-2.3l2.2-28.1c0-0.2,0.1-0.4,0.3-0.5c0.2-0.1,0.3-0.2,0.5-0.2l0.6,0c8.8,0.7,15.4,8.4,14.7,17.2
							C311.7,141.5,304.6,147.9,296.4,147.9z M295.4,146.4c7.9,0.5,14.8-5.4,15.5-13.3c0.6-7.9-5.3-14.9-13.2-15.6l-2.1,27.3
							C295.5,145.3,295.4,145.8,295.4,146.4z"/>
					</g>
					<g>
						<path class="st4" d="M213.3,110.1l-0.6,0c-8.4-0.7-15.7,5.6-16.4,14v0c-0.7,8.4,5.6,15.7,14,16.4l0.7,0.1
							c0-0.8,0.1-1.6,0.1-2.4L213.3,110.1z"/>
						<path class="st0" d="M211,141.3C211,141.3,211,141.3,211,141.3l-0.7-0.1c-8.8-0.7-15.4-8.4-14.7-17.2
							c0.7-8.8,8.4-15.4,17.2-14.7l0.6,0c0.4,0,0.7,0.4,0.7,0.8l-2.2,28.1c-0.1,0.8-0.1,1.5-0.1,2.3c0,0.2-0.1,0.4-0.2,0.5
							C211.4,141.2,211.2,141.3,211,141.3z M211.5,110.8c-7.5,0-13.9,5.8-14.4,13.4c-0.6,7.9,5.3,14.9,13.2,15.6
							c0-0.5,0-1.1,0.1-1.6l2.1-27.3C212.2,110.8,211.9,110.8,211.5,110.8z"/>
					</g>
					<g>
						<g>
							<path class="st4" d="M287.6,109.5L287.6,109.5c-18.5-1.4-33.9-12.4-41.7-27.7c-6.4,12.4-18,22.2-32.5,27.4l-0.1,0.9
								l-2.2,28.1c-0.1,0.8-0.1,1.6-0.1,2.4c-0.5,22.1,16.4,41,38.7,42.7c22.3,1.7,41.9-14.3,44.8-36.2c0.1-0.8,0.2-1.6,0.3-2.4
								l2.2-28.1l0.6-7.3c0,0,0-0.1,0-0.1C294.3,109.7,291,109.8,287.6,109.5z"/>
							<path class="st0" d="M253,184.1c-1.1,0-2.2,0-3.4-0.1c-22.6-1.8-39.9-20.9-39.4-43.5c0-0.8,0.1-1.6,0.1-2.4l2.3-29
								c0-0.3,0.2-0.5,0.5-0.6c14.3-5.1,25.7-14.7,32.1-27c0.1-0.2,0.4-0.4,0.7-0.4c0,0,0,0,0,0c0.3,0,0.5,0.2,0.7,0.4
								c8,15.7,23.4,25.9,41.1,27.3h0c3.2,0.3,6.5,0.2,9.8-0.2c0.2,0,0.4,0,0.6,0.2c0.2,0.2,0.2,0.4,0.2,0.6l0,0.1l-2.8,35.3
								c-0.1,0.8-0.2,1.6-0.3,2.4C292.4,168.5,274.2,184.1,253,184.1z M214.1,109.7l0,0.4l-2.2,28.1c-0.1,0.8-0.1,1.5-0.1,2.3
								c-0.5,21.8,16.2,40.3,38,42c21.8,1.7,41.1-13.9,44-35.6c0.1-0.8,0.2-1.5,0.2-2.3l2.7-34.5c-3.1,0.3-6.2,0.3-9.2,0.1
								c-17.8-1.4-33.2-11.4-41.7-26.8C239.3,95.3,228.1,104.6,214.1,109.7z"/>
						</g>
					</g>
				</g>
				<g>
					<path class="st6" d="M302,155.4c-3.7,0-6.7-3-6.7-6.7c0-3.7,3-6.7,6.7-6.7c3.7,0,6.7,3,6.7,6.7
						C308.7,152.4,305.7,155.4,302,155.4z M302,143.1c-3.1,0-5.7,2.5-5.7,5.7c0,3.1,2.5,5.7,5.7,5.7s5.7-2.5,5.7-5.7
						C307.7,145.6,305.2,143.1,302,143.1z"/>
					<path class="st6" d="M202.8,145.1c-3.7,0-6.7-3-6.7-6.7c0-3.7,3-6.7,6.7-6.7c3.7,0,6.7,3,6.7,6.7
						C209.5,142.1,206.5,145.1,202.8,145.1z M202.8,132.7c-3.1,0-5.7,2.5-5.7,5.7s2.5,5.7,5.7,5.7c3.1,0,5.7-2.5,5.7-5.7
						S205.9,132.7,202.8,132.7z"/>
					<g>
						<path class="st0" d="M204.1,128.9c-0.2,0-0.5-0.1-0.6-0.3c-0.2-0.3-0.2-0.8,0.2-1l2.9-2l-2.9-2.5c-0.3-0.3-0.4-0.7-0.1-1.1
							c0.3-0.3,0.7-0.4,1.1-0.1l3.1,2.7c0.3,0.3,0.5,0.6,0.5,1c0,0.4-0.2,0.8-0.5,1l-3.1,2.2C204.4,128.8,204.3,128.9,204.1,128.9z
							 M206.8,125.7L206.8,125.7L206.8,125.7z"/>
						<path class="st0" d="M303.3,136.6c-0.2,0-0.4-0.1-0.5-0.2l-2.8-2.7c-0.3-0.3-0.4-0.7-0.4-1.1c0-0.4,0.3-0.7,0.6-0.9l3.5-2.1
							c0.4-0.2,0.8-0.1,1,0.3c0.2,0.4,0.1,0.8-0.3,1l-3.3,2l2.5,2.5c0.3,0.3,0.3,0.8,0,1.1C303.7,136.5,303.5,136.6,303.3,136.6z"/>
						<g>
							<g>
								<path class="st0" d="M246.3,114c-0.9,0.7-2.3,0.8-3.6,1.1c-1.3,0.2-2.6,0.4-3.7,0.7c-1.1,0.2-2.4,0.6-3.7,0.9
									c-1.3,0.3-2.6,0.7-3.7,0.5c-1.1-0.2-1.7-1.3-0.9-3c0.8-1.6,3.3-3.8,7-4.6c3.7-0.8,6.8,0.1,8.2,1.3
									C247.4,112.1,247.2,113.4,246.3,114z"/>
							</g>
							<g>
								<path class="st0" d="M270.1,115c0.8,0.8,2.1,1.2,3.3,1.7c1.2,0.4,2.5,0.9,3.6,1.4c1.1,0.5,2.3,1,3.5,1.6
									c1.2,0.6,2.4,1.2,3.5,1.2c1.1,0,1.9-1,1.4-2.8c-0.5-1.8-2.5-4.3-6-5.8c-3.5-1.5-6.8-1.1-8.3-0.2
									C269.4,113,269.3,114.3,270.1,115z"/>
							</g>
						</g>
						<path class="st0" d="M255.5,141.8c-0.1,0-0.3,0-0.4,0l-2.6-0.1c-0.4,0-0.7-0.4-0.7-0.8c0-0.4,0.4-0.7,0.8-0.7l2.6,0.1
							c3.5,0.2,6.5-2.6,6.7-6.1c0-0.4-0.1-0.8-0.4-1c-0.3-0.3-0.6-0.5-1-0.5c-1.4-0.1-2.6-0.7-3.6-1.7c-0.9-1-1.4-2.3-1.3-3.7
							l0.3-6.4c0-0.4,0.4-0.7,0.8-0.7c0.4,0,0.7,0.4,0.7,0.8l-0.3,6.4c0,1,0.3,1.9,0.9,2.6c0.7,0.7,1.6,1.2,2.5,1.2
							c0.8,0,1.5,0.4,2,1c0.5,0.6,0.8,1.3,0.8,2.1C263.2,138.5,259.7,141.8,255.5,141.8z"/>
					</g>
					<g>
						<path class="st7" d="M244.8,172.9c0,0,2.7-2.3,7.2,0.8"/>
						<path class="st0" d="M252,174.5c-0.1,0-0.3,0-0.4-0.1c-3.9-2.7-6.2-1-6.3-0.9c-0.3,0.3-0.8,0.2-1.1-0.1
							c-0.3-0.3-0.2-0.8,0.1-1c0.1-0.1,3.2-2.6,8.2,0.8c0.3,0.2,0.4,0.7,0.2,1C252.5,174.4,252.2,174.5,252,174.5z"/>
					</g>
					<g>
						<path class="st8" d="M239.3,139.8c1.2-0.7,2.7-0.4,3.6,0.6c1.7,1.8,5.5,5.1,11.1,6.1c1.4,0.3,2,1.9,1.3,3.2
							c-1.5,2.7-5.4,6.7-12.5,2.7C234.1,147.5,236.2,141.5,239.3,139.8z"/>
						<path class="st0" d="M248.4,154.9c-1.7,0-3.7-0.5-6-1.8c-5.7-3.3-6.6-6.8-6.6-8.6c0-2.2,1.2-4.3,3.1-5.3c0,0,0,0,0,0
							c1.5-0.8,3.3-0.5,4.5,0.8c1.7,1.8,5.3,4.9,10.7,5.9c0.8,0.2,1.5,0.7,1.9,1.5c0.4,0.9,0.4,1.9-0.1,2.8
							C255.2,151.4,252.8,154.9,248.4,154.9z M239.6,140.4c-1.1,0.6-2.3,2-2.3,4c0,2.6,2.1,5.2,5.8,7.3c6.7,3.8,10.1,0.1,11.5-2.4
							c0.2-0.4,0.3-1,0.1-1.4c-0.1-0.2-0.3-0.6-0.8-0.7c-5.9-1.1-9.7-4.4-11.5-6.4C241.6,140.1,240.5,139.9,239.6,140.4L239.6,140.4
							z"/>
					</g>
					<path class="st0" d="M279.4,130.2c-0.2,0-0.3-0.1-0.5-0.2c-4.5-3.6-8.2-0.8-8.4-0.7c-0.3,0.3-0.8,0.2-1.1-0.1
						c-0.3-0.3-0.2-0.8,0.1-1c0,0,4.8-3.6,10.2,0.7c0.3,0.3,0.4,0.7,0.1,1.1C279.9,130.1,279.7,130.2,279.4,130.2z"/>
					<path class="st0" d="M242.4,127.3c-0.2,0-0.3-0.1-0.5-0.2c-4.5-3.6-8.2-0.8-8.4-0.7c-0.3,0.3-0.8,0.2-1.1-0.1
						c-0.3-0.3-0.2-0.8,0.1-1c0,0,4.8-3.6,10.2,0.7c0.3,0.3,0.4,0.7,0.1,1.1C242.8,127.2,242.6,127.3,242.4,127.3z"/>
				</g>
			</g>
		</g>
		<g>
			<g>
				<path class="st1" d="M279.8,207.8c-9.5-0.3-19.4,12.7-29.7,12.7c-9.7,0-19.3-12.8-29-12.2c-6,0.3-12.1,0.8-18.1,1.3
					c-20.3,1.7-40.7,4.2-59.9,11.1c-30.2,10.9-46.8,24.5-64,51.9c-3.9,6.2-48.7,72.1-48.7,72.1c-17.1,25.7-4.1,58.9,26.5,67.4
					l54.9,2l21.8-52.8l-5.5-1.3l9.6-8.5v148.2h227.9V318.3c38,0,64-0.2,64-0.5C430.4,234.4,378.9,211.2,279.8,207.8z"/>
				<path class="st0" d="M365.4,500.4H137.5c-0.4,0-0.8-0.3-0.8-0.8V353.1l-7.3,6.4l4.1,1c0.2,0.1,0.4,0.2,0.5,0.4
					c0.1,0.2,0.1,0.4,0,0.6l-21.8,52.8c-0.1,0.3-0.4,0.5-0.7,0.5l-54.9-2c-0.1,0-0.1,0-0.2,0c-15.1-4.2-26.7-14.6-31.9-28.5
					c-4.9-13.3-3.1-27.9,5-40.1c0.5-0.7,44.9-65.9,48.7-72c17.4-27.7,34.2-41.3,64.4-52.2c19.4-7,40.4-9.5,60.1-11.2
					c6.3-0.5,12.4-1,18.1-1.3c5.2-0.3,10.3,3,15.2,6.2c4.6,3,9.3,6,13.8,6c5,0,10-3.3,14.9-6.4c5.1-3.3,10-6.4,14.8-6.2
					c54.6,1.9,89.3,9.6,112.8,25.1c26.2,17.3,38.1,44.5,37.6,85.6c0,1,0,1-18.5,1.1c-10.5,0.1-25.8,0.1-45.5,0.1v180.5
					C366.1,500,365.8,500.4,365.4,500.4z M138.3,498.9h226.4V318.3c0-0.4,0.3-0.8,0.7-0.8c46.5,0,60.5-0.2,63.3-0.4
					c0.8-86.1-56.4-105.4-148.9-108.6c-4.5-0.2-9.1,2.8-14,6c-5.1,3.3-10.3,6.7-15.7,6.7c-5,0-9.9-3.2-14.6-6.3
					c-4.7-3.1-9.6-6.3-14.3-6c-5.7,0.3-11.8,0.8-18.1,1.3c-19.6,1.6-40.5,4.1-59.7,11.1c-29.8,10.8-46.5,24.3-63.6,51.6
					c-3.9,6.1-48.3,71.4-48.8,72.1c-7.9,11.8-9.6,25.9-4.8,38.8c5,13.4,16.2,23.4,30.8,27.5l54.3,2l21.3-51.5l-4.7-1.1
					c-0.3-0.1-0.5-0.3-0.6-0.5c-0.1-0.3,0-0.6,0.2-0.7l9.6-8.5c0.2-0.2,0.5-0.2,0.8-0.1c0.3,0.1,0.4,0.4,0.4,0.7V498.9z"/>
			</g>
			<polygon class="st5" points="108.2,304 108,304.3 74.6,347.2 109.1,345.1 			"/>
			<g>
				<g>
					
						<ellipse transform="matrix(0.1461 -0.9893 0.9893 0.1461 169.9408 583.1542)" class="st0" cx="422.8" cy="193.1" rx="12.2" ry="42.7"/>
					<path class="st0" d="M440.6,207.4c-6.2,0-13-0.5-19.7-1.5c-21.1-3.1-42.3-11.1-41.1-19.1c1.2-8,23.7-9.5,44.9-6.4
						c11.4,1.7,21.8,4.5,29.5,8c5.6,2.5,12.2,6.5,11.5,11.1C464.9,205,454.1,207.4,440.6,207.4z M404.9,180.3
						c-14.1,0-23.1,2.8-23.6,6.7c-0.8,5.5,15,13.8,39.8,17.4c24.8,3.7,42.4,0.3,43.2-5.2c0.4-2.8-3.5-6.3-10.7-9.5
						c-7.6-3.4-17.9-6.2-29.1-7.9C417.2,180.8,410.7,180.3,404.9,180.3z M465,199.4L465,199.4L465,199.4z"/>
				</g>
				<g>
					<g>
						<g>
							<g>
								<g>
									<g>
										<g>
											<g>
												<g>
													<path class="st4" d="M387.7,186.2c0,0-3.9-48,22.2-70.3c3.3-2.8,22.7-40.5,22.7-40.5c5.1-8.1,9.7-10.9,13.9-10.4
														c6.2,0.8,9.2,8.8,6.4,15.6l-8.7,21.8c10,5.7,17.2,17.6,17.2,17.6l0,0c12,10.1,14.6,27.4,6.3,40.7l-9.5,14.9l-5.1,61.4
														l-67.9-9.9L387.7,186.2z"/>
													<path class="st0" d="M453.1,237.8c0,0-0.1,0-0.1,0l-67.9-9.9c-0.4-0.1-0.7-0.4-0.6-0.8l2.5-40.9
														c-0.1-1.9-3.2-48.9,22.4-70.9c2.6-2.2,17.1-29.8,22.5-40.3c5-7.9,9.8-11.4,14.7-10.8c2.6,0.3,4.9,1.9,6.4,4.4
														c2,3.5,2.3,8.1,0.7,12.2l-8.4,21.2c9.4,5.6,16.1,16.2,16.8,17.4c12.1,10.3,14.8,28.1,6.3,41.5l-9.4,14.8l-5.1,61.2
														c0,0.2-0.1,0.4-0.3,0.5C453.5,237.7,453.3,237.8,453.1,237.8z M386,226.5l66.4,9.7l5-60.6c0-0.1,0-0.2,0.1-0.3
														l9.5-14.9c8.1-12.8,5.5-29.9-6.1-39.7c-0.1-0.1-0.1-0.1-0.2-0.2c-0.1-0.1-7.2-11.8-16.9-17.3c-0.3-0.2-0.5-0.6-0.3-0.9
														l8.7-21.8c1.5-3.7,1.2-7.9-0.6-10.9c-1.2-2.1-3.1-3.4-5.3-3.7c-4.2-0.6-8.5,2.7-13.2,10c-2,3.8-19.5,37.9-22.8,40.7
														c-25.5,21.8-21.9,69.2-21.9,69.7c0,0,0,0.1,0,0.1L386,226.5z"/>
												</g>
												<g>
													<g>
														<path class="st4" d="M466.7,128.7c-0.8,0.6-1.6,1.2-2.3,1.9L450.6,144c-3.4,3.3-3.2,9.2,0.9,11.7
															c2.8,1.7,6.6,1.4,11.9-1.8l13.1-10.9c3.9-3.2,5.4-8.8,3.2-13.3C478,126,474.3,123.7,466.7,128.7z"/>
														<path class="st0" d="M455.3,157.5c-1.5,0-2.9-0.4-4.2-1.2c-2-1.2-3.3-3.3-3.6-5.8c-0.3-2.6,0.7-5.3,2.6-7.1l13.8-13.4
															c0.8-0.8,1.6-1.5,2.4-2l0,0c3.9-2.6,7.1-3.5,9.7-2.8c1.9,0.5,3.4,1.9,4.4,4c2.3,4.7,0.9,10.7-3.4,14.2l-13.1,10.9
															c0,0-0.1,0-0.1,0.1C460.6,156.5,457.7,157.5,455.3,157.5z M467.1,129.4c-0.7,0.5-1.4,1.1-2.2,1.8l-13.8,13.4
															c-1.6,1.5-2.3,3.7-2.1,5.9c0.2,2,1.2,3.6,2.9,4.7c2.7,1.7,6.3,1.1,11.1-1.8l13.1-10.9c3.7-3.1,5-8.3,3-12.4
															c-0.9-1.8-2-2.8-3.5-3.2C473.5,126.1,470.6,127,467.1,129.4L467.1,129.4z"/>
													</g>
												</g>
												<g>
													<g>
														<path class="st4" d="M456.2,117.1c-0.8,0.6-1.6,1.2-2.3,1.9l-13.8,13.4c-3.4,3.3-3.2,9.2,0.9,11.7
															c2.8,1.7,6.6,1.4,11.9-1.8l13.1-10.9c3.9-3.2,5.4-8.8,3.2-13.3C467.5,114.3,463.8,112,456.2,117.1z"/>
														<path class="st0" d="M444.8,145.8c-1.5,0-2.9-0.4-4.2-1.2c-2-1.2-3.3-3.3-3.6-5.8c-0.3-2.6,0.7-5.3,2.6-7.1l13.8-13.4
															c0.8-0.8,1.6-1.5,2.4-2l0,0c3.9-2.6,7.1-3.5,9.7-2.8c1.9,0.5,3.4,1.9,4.4,4c2.3,4.7,0.9,10.7-3.4,14.2l-13.1,10.9
															c0,0-0.1,0-0.1,0.1C450.1,144.8,447.3,145.8,444.8,145.8z M456.6,117.7c-0.7,0.5-1.4,1.1-2.2,1.8l-13.8,13.4
															c-1.6,1.5-2.3,3.7-2.1,5.9c0.2,2,1.2,3.6,2.9,4.7c2.7,1.7,6.3,1.1,11.1-1.8l13.1-10.9c3.7-3.1,5-8.3,3-12.4
															c-0.9-1.8-2-2.8-3.5-3.2C463,114.5,460.1,115.3,456.6,117.7L456.6,117.7z"/>
													</g>
												</g>
												<g>
													<g>
														<path class="st4" d="M447.5,100.2c-0.9,0.6-1.7,1.3-2.5,2l-14.6,14.2c-3.6,3.5-3.4,9.8,0.9,12.5c3,1.8,7,1.5,12.7-1.9
															l14-11.6c4.2-3.5,5.8-9.3,3.4-14.2C459.5,97.2,455.6,94.8,447.5,100.2z"/>
														<path class="st0" d="M435.3,130.7c-1.6,0-3.1-0.4-4.4-1.2c-2.1-1.3-3.5-3.5-3.8-6.1c-0.3-2.8,0.7-5.6,2.7-7.5
															l14.6-14.2c0.9-0.9,1.7-1.6,2.6-2.1l0,0c4.1-2.7,7.6-3.8,10.3-3c2,0.5,3.6,2,4.7,4.3c2.4,5,0.9,11.3-3.6,15.1
															l-14,11.6c0,0-0.1,0-0.1,0.1C440.9,129.7,437.9,130.7,435.3,130.7z M447.9,100.8c-0.8,0.5-1.5,1.1-2.4,1.9L430.9,117
															c-1.7,1.6-2.5,4-2.3,6.3c0.2,2.1,1.3,3.9,3.1,5c2.9,1.8,6.8,1.2,11.8-1.9l13.9-11.6c4-3.3,5.3-8.9,3.2-13.3
															c-0.9-1.9-2.2-3.1-3.7-3.5C454.7,97.3,451.6,98.3,447.9,100.8L447.9,100.8z"/>
													</g>
												</g>
												<g>
													<path class="st4" d="M427.6,174c0,0,9.3-23.4-16-26.9c-4.1-0.6,30.8,4.5,33.1-6.5c2.3-11-16.5-15-35.8-14.7"/>
													<path class="st0" d="M427.6,174.8c-0.1,0-0.2,0-0.3-0.1c-0.4-0.2-0.6-0.6-0.4-1c0-0.1,3.9-10-0.5-17.6
														c-2.6-4.5-7.7-7.3-15-8.3l-0.2,0c0,0-0.1,0-0.1,0l0,0c-0.7-0.2-0.7-0.6-0.7-0.8c0-0.2,0.2-0.7,0.9-0.6l0,0l0,0
														c0,0,0.1,0,0.1,0c14.1,1.6,31,1,32.5-5.9c0.5-2.3,0-4.2-1.5-6c-4.3-5.2-16.8-8.1-33.5-7.8c-0.4,0-0.8-0.3-0.8-0.7
														c0-0.4,0.3-0.8,0.7-0.8c17.2-0.3,30.2,2.8,34.7,8.3c1.7,2.1,2.3,4.6,1.8,7.3c-1.5,7.4-15.7,8.1-25.9,7.7
														c3.7,1.6,6.4,3.9,8.2,7c4.7,8.2,0.7,18.4,0.6,18.9C428.2,174.6,427.9,174.8,427.6,174.8z"/>
												</g>
											</g>
										</g>
									</g>
								</g>
							</g>
							<g>
								<path class="st1" d="M334.9,362.8l37.6,27.3c33.9,25.5,86.8,5.2,86.9-33.4l5.7-157c0-0.6-58.1,7.5-84.6-13l-20,108.2"/>
								<path class="st0" d="M407.1,402.2c-12.5,0-24.9-3.9-35-11.5l-37.6-27.3c-0.3-0.2-0.4-0.7-0.2-1c0.2-0.3,0.7-0.4,1-0.2
									l37.6,27.3c17.1,12.8,40.7,14.8,60.3,5.1c15.9-7.9,25.4-22.1,25.4-37.9l5.7-156.2c-0.6,0-1.5,0.1-2.5,0.2
									c-38.2,2.9-65.4-1.4-80.8-12.6l-19.8,107c-0.1,0.4-0.5,0.7-0.9,0.6c-0.4-0.1-0.7-0.5-0.6-0.9l20-108.2
									c0-0.3,0.2-0.5,0.5-0.6c0.2-0.1,0.5-0.1,0.7,0.1c14.9,11.5,42.1,15.9,80.7,13c3.6-0.3,3.6-0.3,3.9,0
									c0.2,0.2,0.2,0.4,0.2,0.6l-5.7,157c0,16.4-9.8,31.1-26.2,39.2C425.5,400.1,416.3,402.2,407.1,402.2z"/>
							</g>
							<g>
								<path class="st0" d="M448.8,230c-19.4,0-35-3.2-35.2-3.3c-0.4-0.1-0.7-0.5-0.6-0.9c0.1-0.4,0.5-0.7,0.9-0.6
									c0.2,0.1,24.4,5.1,49.9,2.6c0.4,0,0.8,0.3,0.8,0.7c0,0.4-0.3,0.8-0.7,0.8C458.8,229.8,453.7,230,448.8,230z"/>
								<path class="st0" d="M453.9,219.8c-2.3,0-4.2-1.9-4.2-4.2s1.9-4.2,4.2-4.2c2.3,0,4.2,1.9,4.2,4.2S456.2,219.8,453.9,219.8z
									 M453.9,212.8c-1.5,0-2.7,1.2-2.7,2.7s1.2,2.7,2.7,2.7s2.7-1.2,2.7-2.7S455.4,212.8,453.9,212.8z"/>
							</g>
						</g>
					</g>
				</g>
			</g>
			<g>
				<g>
					<g>
						<g>
							<g>
								<polygon class="st6" points="291.1,499.6 210.4,499.6 217.1,203 250,220.7 282.1,203 								"/>
								<path class="st0" d="M291.1,500.4L291.1,500.4l-80.8,0c-0.2,0-0.4-0.1-0.5-0.2c-0.1-0.1-0.2-0.3-0.2-0.5l6.7-296.6
									c0-0.3,0.1-0.5,0.4-0.6c0.2-0.1,0.5-0.1,0.7,0l32.6,17.5l31.7-17.5c0.2-0.1,0.5-0.1,0.7,0c0.2,0.1,0.4,0.4,0.4,0.6l9,296.6
									c0,0.2-0.1,0.4-0.2,0.5C291.5,500.3,291.4,500.4,291.1,500.4z M211.2,498.8l79.2,0l-9-294.6l-31,17.1
									c-0.2,0.1-0.5,0.1-0.7,0l-31.9-17.1L211.2,498.8z"/>
							</g>
						</g>
					</g>
				</g>
				<g>
					<path class="st0" d="M215.2,335.6c-0.2,0-0.5-0.1-0.6-0.3l-49.1-75.2c-1.2-2.1-0.7-4.8,1.3-6.2l16-11.7l-20-12.3
						c-0.7-0.4-1.1-1.2-1-2.1c0.1-0.8,0.7-1.5,1.5-1.8l39.5-12c0.4-0.1,0.8,0.1,0.9,0.5c0.1,0.4-0.1,0.8-0.5,0.9l-39.5,12
						c-0.4,0.1-0.4,0.4-0.4,0.5c0,0.1,0,0.4,0.3,0.6l20.9,12.9c0.2,0.1,0.3,0.4,0.4,0.6c0,0.2-0.1,0.5-0.3,0.6l-16.9,12.3
						c-1.3,1-1.7,2.8-0.9,4.2l49.1,75.1c0.2,0.3,0.1,0.8-0.2,1C215.4,335.6,215.3,335.6,215.2,335.6z"/>
					<path class="st0" d="M287.4,335.6c-0.1,0-0.3,0-0.4-0.1c-0.3-0.2-0.4-0.7-0.2-1l49.1-75.2c0.8-1.4,0.4-3.2-0.9-4.2L318,242.8
						c-0.2-0.1-0.3-0.4-0.3-0.6c0-0.2,0.1-0.5,0.4-0.6l20.9-12.9c0.3-0.2,0.3-0.5,0.3-0.6c0-0.1-0.1-0.4-0.4-0.5l-39.5-12
						c-0.4-0.1-0.6-0.5-0.5-0.9c0.1-0.4,0.5-0.6,0.9-0.5l39.5,12c0.8,0.2,1.4,0.9,1.5,1.8c0.1,0.8-0.3,1.6-1,2.1l-20,12.3l16,11.7
						c1.9,1.4,2.5,4.1,1.3,6.2l-49.1,75.2C287.9,335.5,287.7,335.6,287.4,335.6z"/>
				</g>
				<g>
					<ellipse class="st0" cx="255.6" cy="233.2" rx="11.8" ry="16"/>
					<path class="st0" d="M255.6,250c-6.9,0-12.6-7.5-12.6-16.8s5.6-16.8,12.6-16.8c6.9,0,12.6,7.5,12.6,16.8S262.6,250,255.6,250z
						 M255.6,218c-6.1,0-11.1,6.9-11.1,15.3c0,8.4,5,15.3,11.1,15.3c6.1,0,11.1-6.9,11.1-15.3C266.7,224.8,261.8,218,255.6,218z"/>
				</g>
				<g>
					<path class="st6" d="M200.6,209.1l11.1-17.7c0.8-1.2,3.1-1.5,4.5-0.6l40,25.6l27.1-22.1c2.3-1.9,5.9-0.6,6.2,2.3l7.3,14.6
						c0.9,1.7,0.4,3.7-1.2,5.1L276.8,233c-1.3,1.9-4.3,2-5.8,0.3l-14.6-14.1l-22.9,17.6c-2.5,1.7-6.7,1.4-8.8-0.5l-23.3-21.6
						C199.8,213.1,199.4,210.9,200.6,209.1z"/>
					<path class="st0" d="M229.4,238.7c-2,0-3.9-0.6-5.2-1.8L201,215.2c-2-1.8-2.4-4.4-1-6.6l0,0l11.1-17.7c0.4-0.7,1.2-1.2,2.2-1.4
						c1.2-0.3,2.5-0.1,3.4,0.5l39.6,25.3l26.7-21.8c1.3-1.1,3.1-1.4,4.8-0.7c1.5,0.6,2.4,1.8,2.6,3.3l7.2,14.5c1,2,0.5,4.3-1.3,6
						l-18.8,16.8c-0.8,1-2,1.7-3.3,1.8c-1.4,0.1-2.7-0.5-3.6-1.5l-14.1-13.6L234,237.4C232.7,238.2,231,238.7,229.4,238.7z
						 M201.2,209.5c-1,1.5-0.7,3.3,0.8,4.7l23.3,21.6c1.8,1.7,5.6,1.9,7.8,0.4l22.8-17.6c0.3-0.2,0.7-0.2,1,0.1l14.6,14.1
						c0.6,0.7,1.5,1.1,2.4,1c0.9,0,1.7-0.5,2.2-1.2c0,0,0.1-0.1,0.1-0.1l18.9-16.9c1.3-1.2,1.7-2.8,1-4.2l-7.3-14.6
						c0-0.1-0.1-0.2-0.1-0.3c-0.1-1-0.7-1.8-1.7-2.2c-1.1-0.5-2.3-0.3-3.2,0.5l-27.1,22.2c-0.3,0.2-0.6,0.2-0.9,0.1l-40-25.6
						c-0.6-0.4-1.5-0.5-2.3-0.3c-0.6,0.1-1,0.4-1.2,0.7L201.2,209.5z"/>
				</g>
			</g>
		</g>
	</g>
	<g>
		<g>
			<rect x="108.3" y="241.1" class="st6" width="294.9" height="219"/>
			<path class="st0" d="M403.2,460.8H108.3c-0.4,0-0.8-0.3-0.8-0.8v-219c0-0.4,0.3-0.8,0.8-0.8h294.9c0.4,0,0.8,0.3,0.8,0.8v219
				C403.9,460.4,403.6,460.8,403.2,460.8z M109,459.3h293.4V241.8H109V459.3z"/>
		</g>
	</g>
	<g>
		<g>
			<path class="st9" d="M174.1,284.9v9.5h-13.9v41.3H148v-41.3h-13.5v-9.5H174.1z"/>
			<path class="st9" d="M180.1,284.9H214v9.3h-21.6v10.4h19.5v9.3h-19.5v12.4h21.8v9.3h-34.1V284.9z"/>
			<path class="st9" d="M225.6,284.9h15.3l5.5,17.8c0.3,1.1,0.7,2.3,1.1,3.7c0.4,1.4,0.8,2.9,1.2,4.4s0.8,3.1,1.1,4.6
				c0.3,1.6,0.6,3,0.8,4.4h0.4c0.2-1.5,0.5-3,0.9-4.7c0.4-1.7,0.8-3.3,1.2-4.9c0.4-1.6,0.8-3,1.2-4.4c0.4-1.3,0.7-2.4,0.9-3.1
				l5.3-17.8h15.3l3.6,50.8h-11.4l-0.9-17.2c-0.1-1.6-0.2-3.4-0.2-5.3c-0.1-1.9-0.1-3.9-0.1-5.8c0-2,0-3.9,0-5.9c0-1.9,0-3.7,0-5.3
				h-0.2c-0.4,1.8-0.8,3.6-1.2,5.5c-0.5,1.9-0.9,3.7-1.4,5.6s-1,3.7-1.5,5.4c-0.5,1.7-1,3.3-1.5,4.8l-5.6,18.2h-9.2l-5.9-18.1
				c-0.5-1.5-1-3.1-1.5-4.9c-0.5-1.7-1-3.5-1.4-5.4c-0.5-1.9-0.9-3.7-1.3-5.6c-0.4-1.9-0.8-3.7-1.1-5.5h-0.2c0.1,1.7,0.1,3.6,0,5.6
				c0,2-0.1,4-0.1,6c-0.1,2-0.1,3.9-0.2,5.8c-0.1,1.9-0.1,3.5-0.2,4.9l-0.9,17.2h-11.3L225.6,284.9z"/>
			<path class="st9" d="M313.5,283.9c3.7,0,7,0.6,10.2,1.8c3.1,1.2,5.8,2.9,8.1,5.2c2.3,2.3,4,5,5.3,8.3c1.3,3.3,1.9,7,1.9,11.1
				c0,4-0.7,7.7-2,10.9c-1.3,3.2-3.1,6-5.4,8.3c-2.3,2.3-5,4-8.1,5.2s-6.5,1.8-10.2,1.8s-7-0.6-10.2-1.8c-3.1-1.2-5.8-2.9-8.1-5.1
				c-2.3-2.2-4-5-5.3-8.2c-1.3-3.2-1.9-6.9-1.9-11.1c0-4,0.6-7.7,1.9-10.9c1.3-3.2,3.1-6,5.4-8.3c2.3-2.3,5-4.1,8.2-5.3
				C306.4,284.5,309.8,283.9,313.5,283.9z M300.7,310.3c0,2.8,0.3,5.3,1,7.5c0.7,2.1,1.6,3.9,2.8,5.3c1.2,1.4,2.5,2.4,4.1,3.1
				c1.5,0.7,3.2,1,5,1c1.7,0,3.3-0.3,4.9-1s2.9-1.7,4-3.1c1.1-1.4,2-3.2,2.7-5.3c0.6-2.1,1-4.6,1-7.5c0-3-0.3-5.5-1-7.7
				c-0.7-2.2-1.6-4-2.8-5.4c-1.2-1.4-2.5-2.4-4.1-3.1c-1.5-0.7-3.2-1-5-1c-1.7,0-3.3,0.4-4.9,1.1c-1.5,0.7-2.9,1.8-4,3.3
				c-1.1,1.5-2,3.3-2.7,5.4C301,305,300.7,307.5,300.7,310.3z"/>
			<path class="st9" d="M364.4,283.9c3.5,0,6.6,0.4,9.2,1.1c2.6,0.7,4.8,1.6,6.7,2.6l-2.7,8.9c-2.1-1.1-4.2-1.9-6.3-2.5
				c-2.1-0.6-4.2-0.9-6.1-0.9c-2.5,0-4.4,0.5-5.6,1.4c-1.3,0.9-1.9,2.1-1.9,3.6c0,1.7,0.6,3,1.9,3.7c1.2,0.8,3.1,1.6,5.7,2.5
				l4.8,1.5c1.9,0.6,3.6,1.4,5.2,2.4c1.6,0.9,3,2,4.2,3.3c1.2,1.2,2.1,2.6,2.7,4.2c0.6,1.6,1,3.3,1,5.1c0,2.1-0.4,4.2-1.2,6.1
				c-0.8,1.9-2,3.6-3.7,5c-1.6,1.5-3.7,2.6-6.2,3.4c-2.5,0.8-5.4,1.2-8.8,1.2c-3.2,0-6.2-0.3-9.1-1c-2.9-0.7-5.5-1.6-7.9-2.9
				l2.7-8.9c2.3,1.1,4.6,2,6.8,2.7c2.2,0.6,4.5,1,6.9,1c2.8,0,4.9-0.5,6.2-1.4c1.3-0.9,1.9-2.2,1.9-3.8c0-0.5-0.1-1.1-0.3-1.6
				c-0.2-0.5-0.6-1.1-1.2-1.6c-0.6-0.5-1.5-1.1-2.6-1.6c-1.1-0.5-2.5-1-4.2-1.6l-3.9-1.4c-1.9-0.7-3.6-1.5-5.2-2.3
				c-1.6-0.9-3-1.9-4.2-3.1c-1.2-1.2-2.1-2.6-2.7-4.1c-0.6-1.6-1-3.4-1-5.6c0-2.2,0.4-4.2,1.2-6.1c0.8-1.9,2.1-3.5,3.7-4.9
				c1.6-1.4,3.7-2.4,6-3.2C358.5,284.3,361.3,283.9,364.4,283.9z"/>
		</g>
	</g>
	<g>
		<path class="st10" d="M148,361.4l6.9,21.8c0.8,2.7,1.7,5.6,2.7,8.9c0.9,3.3,1.8,6.6,2.5,9.9h0.2c0.7-3.3,1.5-6.6,2.5-9.9
			c0.9-3.3,1.8-6.3,2.7-9.1l6.8-21.8h13l-18,52.3h-14l-18.5-52.3H148z"/>
		<path class="st10" d="M201.1,361.4h13.5l18.9,52.3H220l-3.6-11.2h-17.6l-3.6,11.2h-13.2L201.1,361.4z M201.6,393.3h12l-2-6.3
			c-0.7-2-1.3-4.2-2-6.6c-0.7-2.3-1.3-4.5-1.8-6.4h-0.2c-0.6,1.9-1.2,4-1.9,6.3c-0.7,2.3-1.4,4.5-2.1,6.6L201.6,393.3z"/>
		<path class="st10" d="M264.9,360.4c3.3,0,6.3,0.3,8.8,0.8c2.6,0.6,4.9,1.3,6.9,2.2l-2.6,8.3c-1.9-0.9-3.9-1.6-5.9-2
			c-2.1-0.4-4.1-0.6-6-0.6c-2.2,0-4.3,0.4-6.2,1.1c-1.9,0.7-3.6,1.8-5.1,3.4c-1.5,1.5-2.6,3.4-3.4,5.8c-0.8,2.3-1.2,5.1-1.2,8.3
			c0,5.9,1.3,10.4,3.9,13.5s6.3,4.7,11.1,4.7c1.2,0,2.2-0.1,3.2-0.2c0.9-0.1,1.7-0.3,2.2-0.5v-11.4h-8.2v-9.3h20.3v26.9
			c-2.2,0.9-4.7,1.7-7.6,2.3s-6.2,0.9-9.9,0.9c-4,0-7.7-0.6-11.1-1.7c-3.4-1.2-6.4-2.9-8.9-5.2c-2.5-2.3-4.5-5.1-6-8.5
			c-1.4-3.3-2.2-7.2-2.2-11.6c0-4.4,0.7-8.3,2.2-11.7c1.4-3.4,3.4-6.3,6-8.6c2.5-2.3,5.5-4,8.9-5.2
			C257.2,361,260.9,360.4,264.9,360.4z"/>
		<path class="st10" d="M306.8,361.4h13.5l18.9,52.3h-13.4l-3.6-11.2h-17.6l-3.6,11.2h-13.2L306.8,361.4z M307.3,393.3h12l-2-6.3
			c-0.7-2-1.3-4.2-2-6.6c-0.7-2.3-1.3-4.5-1.8-6.4h-0.2c-0.6,1.9-1.2,4-1.9,6.3c-0.7,2.3-1.4,4.5-2.1,6.6L307.3,393.3z"/>
		<path class="st10" d="M363.8,360.4c3.7,0,6.8,0.4,9.5,1.1c2.7,0.7,5,1.6,6.9,2.7l-2.8,9.2c-2.2-1.1-4.3-2-6.5-2.6
			c-2.2-0.6-4.3-1-6.3-1c-2.5,0-4.5,0.5-5.8,1.4c-1.3,0.9-2,2.2-2,3.7c0,1.8,0.6,3.1,1.9,3.9c1.3,0.8,3.2,1.6,5.9,2.5l4.9,1.6
			c1.9,0.7,3.7,1.5,5.4,2.4c1.7,1,3.1,2.1,4.3,3.4c1.2,1.3,2.1,2.7,2.8,4.3c0.7,1.6,1,3.4,1,5.2c0,2.2-0.4,4.3-1.2,6.3
			c-0.8,2-2.1,3.7-3.8,5.2c-1.7,1.5-3.8,2.7-6.4,3.5c-2.6,0.9-5.6,1.3-9.1,1.3c-3.3,0-6.4-0.3-9.3-1c-3-0.7-5.7-1.7-8.2-2.9l2.8-9.2
			c2.4,1.2,4.7,2.1,7,2.7c2.3,0.7,4.7,1,7.1,1c2.9,0,5.1-0.5,6.4-1.5c1.3-1,2-2.3,2-3.9c0-0.6-0.1-1.1-0.3-1.7
			c-0.2-0.6-0.7-1.1-1.3-1.7c-0.6-0.6-1.5-1.1-2.7-1.6c-1.1-0.5-2.6-1.1-4.4-1.6l-4.1-1.4c-1.9-0.7-3.7-1.5-5.4-2.4
			c-1.7-0.9-3.1-1.9-4.3-3.2c-1.2-1.2-2.1-2.6-2.8-4.2c-0.7-1.6-1-3.5-1-5.7c0-2.3,0.4-4.4,1.3-6.3c0.9-1.9,2.1-3.6,3.8-5
			c1.7-1.4,3.8-2.5,6.2-3.3C357.7,360.8,360.5,360.4,363.8,360.4z"/>
	</g>
	<g>
		<g>
			<g>
				<path class="st4" d="M27.9,393c2.3,4.9,5.1,9.3,7.9,12.5c9.6,11,21.2,12.4,34.7,11.6c16.1-1,32-2.2,47.8-6.2
					c5.2-1.7,10.1-3.2,10.6-9.6c0.3-4.8-2.8-9.3-7.6-8.6c0,0,7.8-1.7,10.9-4c5.8-4.4,5.6-17.8-4.2-15.2c0,0,5.3-2.3,6-2.7
					c3.8-2.2,5.3-7.1,3.5-11.1c-1.9-4.4-7.2-6.8-11.7-5.2c1.3-0.4,3.5-2,4.6-2.8c0,0,2.8-2.3,3.5-5.5c1.6-7.1-6-13.3-12.3-9.9
					c-8,4.3-16.8,6.9-25.7,8.4c-3.5,0.6-7.1,1-10.6,1.6l-4,0.7l9.2-10.1c4.3-4.7,1.6-12.4-4.8-13.2l-0.2,0c-3.6-0.5-7.1,0.5-9.9,2.6
					c0,0-17.6,13.6-17.6,13.6c-10,7.8-27.1,5-33.6,17.6C19.4,367.1,22.4,381.5,27.9,393z"/>
				<path class="st0" d="M64.6,418.1c-11.5,0-21.1-2.6-29.4-12.1c-2.9-3.3-5.7-7.8-8.1-12.7c0,0,0,0,0,0c-6.7-14-8-27.6-3.4-36.4
					c4-7.8,11.9-9.9,19.6-12c5-1.4,10.3-2.8,14.2-5.9c0,0,17.6-13.6,17.6-13.6c3-2.3,6.7-3.3,10.4-2.8l0.2,0c3.3,0.4,5.9,2.6,7,5.7
					c1.1,3.1,0.5,6.4-1.8,8.8l-7.7,8.4l1.8-0.3c2.1-0.4,4.1-0.7,6.2-1c1.5-0.2,3-0.4,4.4-0.7c9.6-1.6,18.2-4.4,25.5-8.3
					c3.1-1.7,6.7-1.3,9.7,0.9c3.1,2.4,4.6,6.1,3.7,9.9c-0.8,3.4-3.7,5.8-3.8,5.9c-0.4,0.3-0.9,0.7-1.4,1.1c3.7,0.3,7.3,2.6,8.8,6.1
					c1.9,4.4,0.2,9.7-3.9,12c-0.3,0.2-1.4,0.7-2.5,1.2c1.8,0.4,3.1,1.5,4,3.2c2.1,4.2,0.5,10.6-3.3,13.5c-1.8,1.4-5,2.5-7.6,3.2
					c0.6,0.3,1.2,0.7,1.8,1.2c2,1.8,3,4.7,2.8,7.7c-0.5,6.9-5.8,8.6-10.9,10.2l-0.2,0.1c-15.6,4-30.9,5.2-47.9,6.3
					C68.5,418,66.6,418.1,64.6,418.1z M28.6,392.7c2.3,4.8,5.1,9.1,7.8,12.3c9.3,10.6,20.3,12.2,34.1,11.4c16.9-1,32.2-2.2,47.6-6.2
					l0.2-0.1c5.1-1.6,9.4-3,9.9-8.9c0.2-2.5-0.7-5-2.3-6.5c-1.2-1.1-2.7-1.6-4.4-1.3c-0.4,0.1-0.8-0.2-0.8-0.6
					c-0.1-0.4,0.2-0.8,0.6-0.9c0.1,0,7.7-1.7,10.6-3.9c3.2-2.4,4.6-8.1,2.8-11.6c-1.1-2.3-3.3-3.1-6.3-2.3c-0.4,0.1-0.8-0.1-0.9-0.5
					c-0.1-0.4,0-0.8,0.4-0.9c2.1-0.9,5.4-2.4,5.9-2.7c3.4-2,4.8-6.5,3.2-10.2c-1.8-4.1-6.6-6.2-10.8-4.8c-0.4,0.1-0.8-0.1-1-0.5
					c-0.1-0.4,0.1-0.8,0.5-1l0,0c0,0,0,0,0,0c1.1-0.4,3.2-1.8,4.4-2.7c0,0,2.6-2.1,3.3-5.1c0.7-3.1-0.5-6.3-3.2-8.3
					c-2.5-1.9-5.5-2.2-8.1-0.8c-7.5,4-16.2,6.8-26,8.5c-1.5,0.2-3,0.5-4.5,0.7c-2,0.3-4.1,0.6-6.1,0.9l-4,0.7
					c-0.3,0.1-0.6-0.1-0.8-0.4c-0.2-0.3-0.1-0.6,0.1-0.9l9.2-10.1c1.8-2,2.4-4.7,1.5-7.3c-0.9-2.6-3.1-4.3-5.8-4.7l-0.2,0
					c-3.4-0.4-6.7,0.4-9.3,2.5l-17.6,13.6c-4.2,3.2-9.5,4.7-14.7,6.1c-7.7,2.1-14.9,4.1-18.6,11.3C20,367.5,23.6,382.2,28.6,392.7
					L28.6,392.7z"/>
			</g>
			<g>
				<path class="st11" d="M92.5,396.4c0,0,11.6,2.1,29.8-4.1"/>
				<path class="st0" d="M98,397.6c-3.5,0-5.4-0.3-5.6-0.4c-0.4-0.1-0.7-0.5-0.6-0.9c0.1-0.4,0.5-0.7,0.9-0.6c0.1,0,11.7,2,29.4-4
					c0.4-0.1,0.8,0.1,1,0.5c0.1,0.4-0.1,0.8-0.5,1C111.7,396.8,103.2,397.6,98,397.6z"/>
			</g>
			<g>
				<path class="st11" d="M91.9,378.3c0,0,17.5,2.1,35.4-4.7"/>
				<path class="st0" d="M98.5,379.3c-4.1,0-6.6-0.3-6.7-0.3c-0.4,0-0.7-0.4-0.7-0.8c0-0.4,0.4-0.7,0.8-0.7c0.2,0,17.5,2,35.1-4.6
					c0.4-0.1,0.8,0.1,1,0.4c0.1,0.4-0.1,0.8-0.4,1C116.4,378.5,105.3,379.3,98.5,379.3z"/>
			</g>
			<g>
				<path class="st11" d="M89.6,360.8c0,0,19,0.8,36.7-6.7"/>
				<path class="st0" d="M91.1,361.5c-0.9,0-1.5,0-1.5,0c-0.4,0-0.7-0.4-0.7-0.8c0-0.4,0.3-0.7,0.7-0.7c0,0,0,0,0,0
					c0.2,0,19.1,0.7,36.4-6.6c0.4-0.2,0.8,0,1,0.4c0.2,0.4,0,0.8-0.4,1C111.8,361,96,361.5,91.1,361.5z"/>
			</g>
		</g>
	</g>
</g>
</svg>
